<svg xmlns="http://www.w3.org/2000/svg" width="64" height="64" version="1.1" viewBox="0 0 64 64">
 <defs>
  <linearGradient id="a" x1="10" x2="54" y1="8" y2="58" gradientUnits="userSpaceOnUse">
   <stop offset="0" stop-color="#62d3a5"/>
   <stop offset="1" stop-color="#147d68"/>
  </linearGradient>
  <linearGradient id="b" x1="17" x2="47" y1="18" y2="48" gradientUnits="userSpaceOnUse">
   <stop offset="0" stop-color="#fffaf0"/>
   <stop offset="1" stop-color="#e4ddc7"/>
  </linearGradient>
  <filter id="c" x="-.2" y="-.2" width="1.4" height="1.4" color-interpolation-filters="sRGB">
   <feGaussianBlur stdDeviation="1.2"/>
  </filter>
 </defs>
 <rect width="56" height="56" x="4" y="5" rx="14" fill="#000" opacity=".18"/>
 <rect width="56" height="56" x="4" y="3" rx="14" fill="url(#a)"/>
 <path fill="#fff" opacity=".25" d="M13 3h38c5 0 9 4 9 9v3c0-5-4-9-9-9H13c-5 0-9 4-9 9v-3c0-5 4-9 9-9z"/>
 <g transform="translate(11 13)">
  <rect width="42" height="38" x="0" y="3" rx="5" fill="#000" opacity=".2"/>
  <rect width="42" height="38" x="0" y="1" rx="5" fill="#296f5e"/>
  <path fill="#f2ecd9" d="M4 5h17v15H4zm17 15h17v15H21z"/>
  <path fill="#58bb8b" d="M21 5h17v15H21zM4 20h17v15H4z"/>
  <path fill="#000" opacity=".16" d="M5 34h33v1H5z"/>
 </g>
 <path d="M35 18c-7 .9-12 6.2-12.7 13l5.4.8c.9-3.7 3-6 6.2-7.1-.6 2.8.4 5.2 2.8 6.8l-8.9 6.2c-1.3.9-2 2.4-2 4v3h20.5v-3c0-3.2-2.1-5.9-5.1-6.7l-2.2-.6 3.8-5.8c1.4-2.2 1.2-5.2-.5-7.2-1.8-2.4-4.4-3.6-7.3-3.4z" filter="url(#c)" opacity=".25"/>
 <path fill="url(#b)" d="M35 16c-7 .9-12 6.2-12.7 13l5.4.8c.9-3.7 3-6 6.2-7.1-.6 2.8.4 5.2 2.8 6.8l-8.9 6.2c-1.3.9-2 2.4-2 4v3h20.5v-3c0-3.2-2.1-5.9-5.1-6.7l-2.2-.6 3.8-5.8c1.4-2.2 1.2-5.2-.5-7.2-1.8-2.4-4.4-3.6-7.3-3.4z"/>
 <circle cx="35.7" cy="22.6" r="1.7" fill="#2b2b2b"/>
 <path fill="#343434" d="M24.8 45h23c1.4 0 2.5 1.1 2.5 2.5V50h-28v-2.5c0-1.4 1.1-2.5 2.5-2.5z"/>
 <path fill="#fff" opacity=".45" d="M27.2 28.4c1.3-3.8 4.1-6.1 8.4-6.8-.4.4-.7.8-.9 1.2-3.5.9-5.8 3.2-6.7 6.8z"/>
</svg>
