<svg xmlns="http://www.w3.org/2000/svg" width="64" height="64" version="1.1" viewBox="0 0 64 64">
 <title>Chess</title>
 <defs>
  <linearGradient id="a" x1="8" x2="56" y1="6" y2="58" gradientUnits="userSpaceOnUse">
   <stop offset="0" stop-color="#66cfa4"/>
   <stop offset="1" stop-color="#147964"/>
  </linearGradient>
  <linearGradient id="b" x1="18" x2="46" y1="14" y2="54" gradientUnits="userSpaceOnUse">
   <stop offset="0" stop-color="#2b2b2b"/>
   <stop offset="1" stop-color="#050505"/>
  </linearGradient>
 </defs>
 <rect width="56" height="56" x="4" y="5" rx="14" fill="#000" opacity=".18"/>
 <rect width="56" height="56" x="4" y="3" rx="14" fill="url(#a)"/>
 <path fill="#fff" opacity=".24" d="M13 3h38c5 0 9 4 9 9v3c0-5-4-9-9-9H13c-5 0-9 4-9 9v-3c0-5 4-9 9-9z"/>
 <g transform="translate(11 12)">
  <rect width="42" height="40" x="0" y="3" rx="6" fill="#000" opacity=".22"/>
  <rect width="42" height="40" x="0" y="1" rx="6" fill="#efe8d2"/>
  <path fill="#217e65" d="M4 5h17v16H4zm17 16h17v16H21z"/>
  <path fill="#faf5e5" d="M21 5h17v16H21zM4 21h17v16H4z"/>
 </g>
 <path class="chess-piece chess-king-shadow" fill="#000" opacity=".25" d="M29 12h6v6h7v6h-7v6.6c4.6 1.3 8 5.5 8 10.4 0 3.2-1.4 6.1-3.6 8.1h5.4c2.3 0 4.2 1.9 4.2 4.2V56H15v-2.7c0-2.3 1.9-4.2 4.2-4.2h5.4A10.7 10.7 0 0 1 21 41c0-4.9 3.4-9.1 8-10.4V24h-7v-6h7z"/>
 <path class="chess-piece chess-king" fill="url(#b)" d="M29 10h6v6h7v6h-7v6.6c4.6 1.3 8 5.5 8 10.4 0 3.2-1.4 6.1-3.6 8.1h5.4c2.3 0 4.2 1.9 4.2 4.2V54H15v-2.7c0-2.3 1.9-4.2 4.2-4.2h5.4A10.7 10.7 0 0 1 21 39c0-4.9 3.4-9.1 8-10.4V22h-7v-6h7z"/>
 <path fill="#fff" opacity=".2" d="M31 31.5c-4.2.6-7.4 4.2-7.4 8.6 0 2.2.8 4.2 2.2 5.8-.6-1.5-.9-3-.9-4.6 0-4.2 2.5-8 6.1-9.8z"/>
</svg>
