<svg xmlns="http://www.w3.org/2000/svg" width="64" height="64" viewBox="0 0 64 64">
 <defs><linearGradient id="a" x1="32" x2="32" y1="58" y2="6" gradientUnits="userSpaceOnUse"><stop offset="0" stop-color="#f05a28"/><stop offset="1" stop-color="#ffb07a"/></linearGradient></defs>
 <rect width="56" height="52" x="4" y="7" rx="15" opacity=".22"/>
 <rect width="56" height="52" x="4" y="5" rx="15" fill="url(#a)"/>
 <path fill="#fff7ef" d="M17 32h10v4H17zm20 0h10v4H37z"/>
 <circle cx="14" cy="34" r="7" fill="#fff7ef"/>
 <circle cx="32" cy="34" r="7" fill="#fff7ef"/>
 <circle cx="50" cy="34" r="7" fill="#fff7ef"/>
 <circle cx="14" cy="34" r="3" fill="#f05a28"/>
 <circle cx="32" cy="34" r="3" fill="#f05a28"/>
 <circle cx="50" cy="34" r="3" fill="#f05a28"/>
 <path fill="#6d260f" d="M18 19h5v3h-2v9h-3zm9 0h8v3h-5v3h4v3h-4v3h5v3h-8zm13 0h6c4 0 7 3 7 7s-3 8-7 8h-6zm4 3v9h2c2 0 3-2 3-5s-1-4-3-4z" opacity=".82"/>
</svg>
