<svg xmlns="http://www.w3.org/2000/svg" width="64" height="64" version="1">
 <circle style="opacity:0.2" cx="32" cy="33" r="28"/>
 <ellipse style="fill:#ffffff" cx="32" cy="32" rx="27.5" ry="27.5"/>
 <path style="fill:#26a69a" d="M 32 10 L 52 22 L 52 44 L 32 56 L 12 44 L 12 22 Z"/>
 <path style="fill:#00897b" d="M 32 10 L 52 22 L 32 34 L 12 22 Z"/>
 <path style="fill:#4db6ac" d="M 12 22 L 32 34 L 32 56 L 12 44 Z"/>
 <path style="fill:#80cbc4" d="M 32 34 L 52 22 L 52 44 L 32 56 Z"/>
 <path style="opacity:0.25;fill:#ffffff" d="M 32 14 L 48 24 L 32 30 L 16 24 Z"/>
 <path style="fill:#37474f" d="M 28 38 L 36 38 L 36 46 L 28 46 Z"/>
 <path style="fill:#eceff1" d="M 30 40 L 34 40 L 34 44 L 30 44 Z"/>
</svg>