<svg xmlns="http://www.w3.org/2000/svg" viewBox="0 0 64 64" role="img" aria-label="Newspaper">
  <defs><linearGradient id="bg" x2="0" y2="1"><stop stop-color="#f8f7f3"/><stop offset="1" stop-color="#c7c5c0"/></linearGradient><linearGradient id="sheet" x2="0" y2="1"><stop stop-color="#fffefa"/><stop offset="1" stop-color="#eeeae1"/></linearGradient></defs>
  <rect x="3" y="3" width="58" height="58" rx="14" fill="url(#bg)" stroke="#9da0a0"/>
  <path d="M15 12h37a3 3 0 0 1 3 3v36a4 4 0 0 1-4 4H18a6 6 0 0 1-6-6V15a3 3 0 0 1 3-3Z" fill="url(#sheet)" stroke="#a7a7a3"/>
  <path d="M12 46v4a5 5 0 0 0 5 5h1a4 4 0 0 0 4-4V17" fill="#d4d8d9" stroke="#8c9494"/>
  <path d="M26 20h22M26 24h22" stroke="#873f46" stroke-width="2.5" stroke-linecap="round"/>
  <rect x="26" y="30" width="13" height="11" rx="1" fill="#a9565c"/>
  <path d="M42 31h7M42 35h7M42 39h7M26 46h23" stroke="#7b8588" stroke-width="1.8" stroke-linecap="round"/>
</svg>
