<svg xmlns="http://www.w3.org/2000/svg" width="24" height="24" viewBox="0 0 24 24" version="1.1">
 <defs>
  <style id="current-color-scheme" type="text/css">.ColorScheme-Text { color:#363636; }</style>
 </defs>
 <path class="ColorScheme-Text" fill="currentColor" fill-rule="evenodd" d="M10.8 3h2.4l.5 2.3c.5.2 1 .4 1.5.7l2-1.2 1.7 1.7-1.2 2c.3.5.5 1 .7 1.5l2.3.5v2.4l-2.3.5c-.2.5-.4 1-.7 1.5l1.2 2-1.7 1.7-2-1.2c-.5.3-1 .5-1.5.7l-.5 2.3h-2.4l-.5-2.3c-.5-.2-1-.4-1.5-.7l-2 1.2-1.7-1.7 1.2-2c-.3-.5-.5-1-.7-1.5L3.3 13v-2.4l2.3-.5c.2-.5.4-1 .7-1.5l-1.2-2 1.7-1.7 2 1.2c.5-.3 1-.5 1.5-.7L10.8 3zM12 9a3 3 0 1 0 0 6 3 3 0 0 0 0-6z"/>
</svg>
