<svg xmlns="http://www.w3.org/2000/svg" width="64" height="64" version="1">
 <defs>
  <linearGradient id="a" x1="32" x2="32" y1="10" y2="53" gradientUnits="userSpaceOnUse">
   <stop offset="0" stop-color="#3a4654"/>
   <stop offset="1" stop-color="#151d28"/>
  </linearGradient>
  <linearGradient id="b" x1="18" x2="46" y1="19" y2="40" gradientUnits="userSpaceOnUse">
   <stop offset="0" stop-color="#36d5c5"/>
   <stop offset="1" stop-color="#0c6fbf"/>
  </linearGradient>
 </defs>
 <rect width="54" height="38" x="5" y="12" rx="9" fill="url(#a)"/>
 <rect width="44" height="26" x="10" y="17" rx="4" fill="#0a111c"/>
 <rect width="38" height="20" x="13" y="20" rx="2.5" fill="url(#b)"/>
 <path d="M13 20h38v8H13z" fill="#fff" opacity=".18"/>
 <path d="M22 55h20" fill="none" stroke="#2d3745" stroke-linecap="round" stroke-width="5"/>
 <path d="M32 49v6" fill="none" stroke="#2d3745" stroke-linecap="round" stroke-width="5"/>
 <circle cx="50" cy="44" r="3" fill="#ff4b5f"/>
 <path d="m23 8 9 8 9-8" fill="none" stroke="#2d3745" stroke-linecap="round" stroke-linejoin="round" stroke-width="3"/>
 <path d="M9.5 14.5c1.5-1.55 3.5-2.5 5.8-2.5h33.4c2.3 0 4.3.95 5.8 2.5-1.43-.82-3.2-1.3-5.16-1.3H14.66c-1.96 0-3.73.48-5.16 1.3z" fill="#fff" opacity=".22"/>
</svg>
