<svg xmlns="http://www.w3.org/2000/svg" viewBox="0 0 64 64" aria-hidden="true">
  <defs>
    <linearGradient id="users-a" x1="12" y1="8" x2="52" y2="58" gradientUnits="userSpaceOnUse">
      <stop offset="0" stop-color="#7cc8ff"/>
      <stop offset="1" stop-color="#4f7cff"/>
    </linearGradient>
    <linearGradient id="users-b" x1="16" y1="28" x2="48" y2="58" gradientUnits="userSpaceOnUse">
      <stop offset="0" stop-color="#ffffff"/>
      <stop offset="1" stop-color="#dce8ff"/>
    </linearGradient>
  </defs>
  <rect x="7" y="8" width="50" height="50" rx="14" fill="url(#users-a)"/>
  <circle cx="32" cy="24" r="8" fill="url(#users-b)"/>
  <circle cx="20" cy="28" r="6" fill="#d7e6ff" opacity=".9"/>
  <circle cx="44" cy="28" r="6" fill="#d7e6ff" opacity=".9"/>
  <path fill="url(#users-b)" d="M17 47c1.9-7 7.3-11 15-11s13.1 4 15 11c.3 1.1-.5 2-1.6 2H18.6c-1.1 0-1.9-.9-1.6-2z"/>
  <path fill="#c7dbff" opacity=".92" d="M9.8 45.5c1.2-5.2 5.1-8.1 10.2-8.1 2.5 0 4.6.7 6.3 2-2.5 2-4.3 4.8-5.2 8.4H11.3c-1 0-1.8-1-1.5-2.3zM42.9 47.8c-.9-3.6-2.7-6.4-5.2-8.4 1.7-1.3 3.8-2 6.3-2 5.1 0 9 2.9 10.2 8.1.3 1.3-.5 2.3-1.5 2.3h-9.8z"/>
</svg>
