<svg xmlns="http://www.w3.org/2000/svg" width="128" height="128" viewBox="0 0 128 128" role="img" aria-label="Game Maker Studio">
  <defs>
    <linearGradient id="g" x1="18" y1="15" x2="108" y2="115" gradientUnits="userSpaceOnUse">
      <stop stop-color="#705cf6"/>
      <stop offset="1" stop-color="#3b2b91"/>
    </linearGradient>
    <linearGradient id="s" x1="36" y1="42" x2="91" y2="94" gradientUnits="userSpaceOnUse">
      <stop stop-color="#ffffff"/>
      <stop offset="1" stop-color="#d9d3ff"/>
    </linearGradient>
  </defs>
  <rect x="8" y="8" width="112" height="112" rx="27" fill="url(#g)"/>
  <path d="M42 47h44c12 0 19 9 22 22l4 18c2 9-8 15-15 9L85 86H43L31 96c-7 6-17 0-15-9l4-18c3-13 10-22 22-22Z" fill="url(#s)"/>
  <path d="M42 59v18M33 68h18" stroke="#4b389e" stroke-width="7" stroke-linecap="round"/>
  <circle cx="84" cy="64" r="5" fill="#705cf6"/>
  <circle cx="96" cy="74" r="5" fill="#705cf6"/>
  <path d="m87 23 3 8 8 3-8 3-3 8-3-8-8-3 8-3 3-8Z" fill="#fff4a8"/>
</svg>
