<svg xmlns="http://www.w3.org/2000/svg" width="24" height="24" version="1.1" viewBox="0 0 24 24">
 <title>Chess</title>
 <rect width="18" height="18" x="3" y="4" rx="2" opacity=".22"/>
 <rect width="18" height="18" x="3" y="3" rx="2" fill="#e8e2cc"/>
 <path fill="#23896b" d="M5 5h7v7H5zm7 7h7v7h-7z"/>
 <path fill="#f7f3e4" d="M12 5h7v7h-7zM5 12h7v7H5z"/>
 <path class="chess-piece chess-king-shadow" fill="#000" opacity=".24" d="M11 5h2v2h2v2h-2v2.2c1.5.5 2.6 1.9 2.6 3.6 0 1.1-.5 2.1-1.2 2.8h1.8c.8 0 1.4.6 1.4 1.4v.8H6.4V19c0-.8.6-1.4 1.4-1.4h1.8c-.8-.7-1.2-1.7-1.2-2.8 0-1.7 1.1-3.1 2.6-3.6V9H9V7h2z"/>
 <path class="chess-piece chess-king" fill="#171717" d="M11 4h2v2h2v2h-2v2.2c1.5.5 2.6 1.9 2.6 3.6 0 1.1-.5 2.1-1.2 2.8h1.8c.8 0 1.4.6 1.4 1.4v.8H6.4V18c0-.8.6-1.4 1.4-1.4h1.8c-.8-.7-1.2-1.7-1.2-2.8 0-1.7 1.1-3.1 2.6-3.6V8H9V6h2z"/>
 <path fill="#fff" opacity=".28" d="M12 11.8c-1.1.2-2 1.1-2 2.3 0 .7.3 1.3.8 1.7-.2-.5-.3-1-.3-1.5 0-1.1.6-2 1.5-2.5z"/>
</svg>
