<svg xmlns="http://www.w3.org/2000/svg" width="64" height="64" viewBox="0 0 64 64">
 <rect width="54" height="46" x="5" y="10" rx="10" opacity=".2"/>
 <rect width="54" height="46" x="5" y="9" rx="10" fill="#224a60"/>
 <rect width="36" height="30" x="12" y="17" rx="5" fill="#dff7ff"/>
 <rect width="26" height="4" x="17" y="24" rx="2" fill="#2e7f9f"/>
 <rect width="22" height="4" x="17" y="32" rx="2" fill="#47a8c8"/>
 <rect width="18" height="4" x="17" y="40" rx="2" fill="#7ac8dd"/>
 <circle cx="43" cy="41" r="8" fill="none" stroke="#ffb84d" stroke-width="5"/>
 <path stroke="#ffb84d" stroke-linecap="round" stroke-width="5" d="m49 47 7 7"/>
 <path fill="#fff" opacity=".3" d="M17 9h30c7 0 12 5 12 12v1c0-7-5-12-12-12H17C10 10 5 15 5 22v-1C5 14 10 9 17 9z"/>
</svg>
