<svg xmlns="http://www.w3.org/2000/svg" width="64" height="64" viewBox="0 0 64 64">
 <rect width="54" height="46" x="5" y="10" rx="10" opacity=".2"/>
 <rect width="54" height="46" x="5" y="9" rx="10" fill="#c62828"/>
 <path fill="none" stroke="#f8d7d7" stroke-width="4" stroke-linecap="round" d="M19 25h13m0 0 13 14M32 25v14"/>
 <rect width="14" height="10" x="12" y="20" rx="3" fill="#fff"/>
 <rect width="14" height="10" x="25" y="20" rx="3" fill="#ef9a9a"/>
 <rect width="14" height="10" x="38" y="34" rx="3" fill="#fff"/>
 <rect width="14" height="10" x="25" y="34" rx="3" fill="#ffcdd2"/>
 <path fill="#8e1515" d="M14 48h36v4H14z" opacity=".55"/>
 <path fill="#fff" opacity=".35" d="M17 9h30c7 0 12 5 12 12v1c0-7-5-12-12-12H17C10 10 5 15 5 22v-1c0-7 5-12 12-12z"/>
</svg>
