<svg xmlns="http://www.w3.org/2000/svg" width="64" height="64" viewBox="0 0 64 64">
 <rect width="54" height="46" x="5" y="10" rx="12" opacity=".2"/>
 <rect width="54" height="46" x="5" y="9" rx="12" fill="#4d3c8f"/>
 <rect width="28" height="36" x="18" y="15" rx="5" fill="#8f7cf6"/>
 <rect width="18" height="10" x="23" y="20" rx="2" fill="#2d2559"/>
 <path fill="#2d2559" d="M23 36h5v-5h4v5h5v4h-5v5h-4v-5h-5z"/>
 <circle cx="42" cy="34" r="3" fill="#ffe36e"/>
 <circle cx="42" cy="43" r="3" fill="#ff7aa5"/>
 <path fill="#fff" opacity=".25" d="M23 15h18c3 0 5 2 5 5v1c0-3-2-5-5-5H23c-3 0-5 2-5 5v-1c0-3 2-5 5-5z"/>
</svg>
