<svg xmlns="http://www.w3.org/2000/svg" width="64" height="64" viewBox="0 0 64 64">
 <rect width="54" height="46" x="5" y="10" rx="12" opacity=".2"/>
 <rect width="54" height="46" x="5" y="9" rx="12" fill="#252c35"/>
 <rect width="34" height="24" x="12" y="19" rx="4" fill="#0d1117"/>
 <path fill="none" stroke="#48e88a" stroke-width="3" stroke-linecap="round" stroke-linejoin="round" d="m18 27 5 4-5 4"/>
 <path stroke="#8fb3ff" stroke-linecap="round" stroke-width="3" d="M28 35h10"/>
 <circle cx="49" cy="24" r="5" fill="#8fb3ff"/>
 <circle cx="49" cy="41" r="5" fill="#48e88a"/>
 <path stroke="#c6d8ff" stroke-linecap="round" stroke-width="3" d="M46 28 38 34m8 4-8-4"/>
 <path fill="#fff" opacity=".22" d="M17 9h30c7 0 12 5 12 12v1c0-7-5-12-12-12H17C10 10 5 15 5 22v-1C5 14 10 9 17 9z"/>
</svg>
