<svg xmlns="http://www.w3.org/2000/svg" viewBox="0 0 64 64" aria-hidden="true">
  <defs>
    <linearGradient id="users-a" x1="11" y1="7" x2="53" y2="59" gradientUnits="userSpaceOnUse">
      <stop offset="0" stop-color="#8fd6ff"/>
      <stop offset="1" stop-color="#5b7cff"/>
    </linearGradient>
    <linearGradient id="users-b" x1="16" y1="25" x2="48" y2="54" gradientUnits="userSpaceOnUse">
      <stop offset="0" stop-color="#ffffff"/>
      <stop offset="1" stop-color="#e3edff"/>
    </linearGradient>
  </defs>
  <rect x="6" y="7" width="52" height="52" rx="13" fill="url(#users-a)"/>
  <path fill="#3e5fc7" opacity=".2" d="M12 51c5.6 5.5 34.4 5.5 40 0v2c0 2.8-2.2 5-5 5H17c-2.8 0-5-2.2-5-5v-2z"/>
  <circle cx="32" cy="24" r="8" fill="url(#users-b)"/>
  <circle cx="20" cy="28" r="6" fill="#d9e7ff" opacity=".94"/>
  <circle cx="44" cy="28" r="6" fill="#d9e7ff" opacity=".94"/>
  <path fill="url(#users-b)" d="M16.8 47.2C18.7 40.1 24.2 36 32 36s13.3 4.1 15.2 11.2c.3 1.1-.5 2.1-1.7 2.1h-27c-1.2 0-2-.9-1.7-2.1z"/>
  <path fill="#c8dbff" opacity=".94" d="M9.6 45.5c1.3-5.3 5.1-8.2 10.3-8.2 2.5 0 4.7.7 6.4 2-2.5 2-4.3 4.9-5.2 8.5h-10c-1 0-1.8-.9-1.5-2.3zM42.9 47.8c-.9-3.6-2.7-6.5-5.2-8.5 1.7-1.3 3.9-2 6.4-2 5.2 0 9 2.9 10.3 8.2.3 1.4-.5 2.3-1.5 2.3h-10z"/>
</svg>
