<svg xmlns="http://www.w3.org/2000/svg" width="1408" height="1280" viewBox="0 0 1408 1280" role="img" aria-label="AuraGo config sidebar icon sprite">
  <g class="cfg-icon-cell" data-key="overview" data-slot="0" transform="translate(0 0)">
    <title>overview</title>
    <g fill="#7da3c8"><rect x="28" y="28" width="28" height="28" rx="7"/><rect x="72" y="28" width="28" height="28" rx="7" opacity=".72"/><rect x="28" y="72" width="28" height="28" rx="7" opacity=".72"/><rect x="72" y="72" width="28" height="28" rx="7"/></g><path d="M43 43h42M43 85h42" fill="none" stroke-linecap="round" stroke-linejoin="round" stroke-width="6" stroke="#35c7d3"/>
  </g>
  <g class="cfg-icon-cell" data-key="agent" data-slot="1" transform="translate(128 0)">
    <title>agent</title>
    <circle cx="64" cy="64" r="23" fill="none" stroke-linecap="round" stroke-linejoin="round" stroke-width="6" stroke="#7da3c8"/><path d="M64 23v13M64 92v13M23 64h13M92 64h13M35 35l9 9M84 84l9 9M93 35l-9 9M44 84l-9 9" fill="none" stroke-linecap="round" stroke-linejoin="round" stroke-width="6" stroke="#35c7d3"/><circle cx="64" cy="64" r="8" fill="#35c7d3"/><text x="64" y="64" text-anchor="middle" dominant-baseline="middle" font-family="Geist, Inter, Segoe UI, Arial, sans-serif" font-size="18" font-weight="800" fill="#7da3c8">A</text>
  </g>
  <g class="cfg-icon-cell" data-key="heartbeat" data-slot="2" transform="translate(256 0)">
    <title>heartbeat</title>
    <path d="M30 67c-11-15 8-34 24-19l10 10 10-10c16-15 35 4 24 19-7 11-21 22-34 34-13-12-27-23-34-34z" fill="#ef6f78" opacity=".2"/><path d="M26 68h19l8-18 15 36 9-18h25" fill="none" stroke-linecap="round" stroke-linejoin="round" stroke-width="6" stroke="#35c7d3"/>
  </g>
  <g class="cfg-icon-cell" data-key="optimizations" data-slot="3" transform="translate(384 0)">
    <title>optimizations</title>
    <path d="M51 86 42 98l18-5 26-26c9-9 13-24 9-37-13-4-28 0-37 9L32 65l-5 18 12-9z" fill="#4f8ee8" opacity=".2"/><path d="M39 74 58 39c9-9 24-13 37-9 4 13 0 28-9 37L51 86M45 88l-10 10M76 43l9 9" fill="none" stroke-linecap="round" stroke-linejoin="round" stroke-width="6" stroke="#4f8ee8"/><circle cx="76" cy="52" r="8" fill="#35c7d3"/>
  </g>
  <g class="cfg-icon-cell" data-key="providers" data-slot="4" transform="translate(512 0)">
    <title>providers</title>
    <path d="M48 29v24M80 29v24M42 53h44v15c0 12-10 22-22 22S42 80 42 68zM64 90v14" fill="none" stroke-linecap="round" stroke-linejoin="round" stroke-width="6" stroke="#27b6a9"/><path d="M48 68h32" fill="none" stroke-linecap="round" stroke-linejoin="round" stroke-width="6" stroke="#7da3c8"/>
  </g>
  <g class="cfg-icon-cell" data-key="manifest" data-slot="5" transform="translate(640 0)">
    <title>manifest</title>
    <g fill="#7b8ff0"><rect x="28" y="28" width="26" height="26" rx="6"/><rect x="59" y="28" width="41" height="26" rx="6" opacity=".75"/><rect x="28" y="59" width="41" height="41" rx="6" opacity=".75"/><rect x="74" y="59" width="26" height="41" rx="6"/></g><path d="M41 41h.1M87 87h.1" fill="none" stroke-linecap="round" stroke-linejoin="round" stroke-width="6" stroke="#35c7d3"/>
  </g>
  <g class="cfg-icon-cell" data-key="omniroute" data-slot="6" transform="translate(768 0)">
    <title>omniroute</title>
    <circle cx="36" cy="39" r="10" fill="#35c7d3"/><circle cx="92" cy="89" r="10" fill="#7b8ff0"/><path d="M46 39h15c15 0 17 20 2 20H51c-17 0-20 30 8 30h23" fill="none" stroke-linecap="round" stroke-linejoin="round" stroke-width="6" stroke="#35c7d3"/>
  </g>
  <g class="cfg-icon-cell" data-key="dograh" data-slot="7" transform="translate(896 0)">
    <title>dograh</title>
    <path d="M31 40h24l13 24-13 24H31L18 64zM73 30h24l13 24-13 24H73L60 54z" fill="#9b7cf0" opacity=".2"/><path d="M43 64h36M70 50l14 14-14 14" fill="none" stroke-linecap="round" stroke-linejoin="round" stroke-width="6" stroke="#35c7d3"/><text x="64" y="65" text-anchor="middle" dominant-baseline="middle" font-family="Geist, Inter, Segoe UI, Arial, sans-serif" font-size="19" font-weight="800" fill="#9b7cf0">D</text>
  </g>
  <g class="cfg-icon-cell" data-key="llm" data-slot="8" transform="translate(1024 0)">
    <title>llm</title>
    <path d="M48 35c-13 2-19 15-13 27-9 7-7 24 7 29 6 12 22 10 26 0 8 9 25 3 25-11 12-7 10-25-1-30 2-14-14-25-26-17-5-6-13-7-18 2z" fill="#9b7cf0" opacity=".18"/><path d="M52 42c-9 5-10 17-2 24M74 39c8 6 9 18 0 25M48 84c8 5 18 2 22-6M73 78c7 6 17 6 23-1" fill="none" stroke-linecap="round" stroke-linejoin="round" stroke-width="6" stroke="#9b7cf0"/><circle cx="64" cy="64" r="7" fill="#35c7d3"/>
  </g>
  <g class="cfg-icon-cell" data-key="fallback_llm" data-slot="9" transform="translate(1152 0)">
    <title>fallback_llm</title>
    <path d="M91 51A30 30 0 0 0 37 43L27 53M37 43v21M37 77a30 30 0 0 0 54 8l10-10M91 85V64" fill="none" stroke-linecap="round" stroke-linejoin="round" stroke-width="6" stroke="#4f8ee8"/><circle cx="64" cy="64" r="8" fill="#35c7d3"/>
  </g>
  <g class="cfg-icon-cell" data-key="embeddings" data-slot="10" transform="translate(1280 0)">
    <title>embeddings</title>
    <circle cx="37" cy="43" r="10" fill="#35c7d3"/><circle cx="91" cy="43" r="10" fill="#7da3c8"/><circle cx="64" cy="90" r="10" fill="#35c7d3"/><path d="M47 43h34M42 52l17 29M86 52 69 81" fill="none" stroke-linecap="round" stroke-linejoin="round" stroke-width="6" stroke="#9eb3c9"/>
  </g>
  <g class="cfg-icon-cell" data-key="budget" data-slot="11" transform="translate(0 128)">
    <title>budget</title>
    <rect x="27" y="42" width="74" height="48" rx="12" fill="#6fca8f" opacity=".24"/><path d="M29 45h67c6 0 10 4 10 10v29H29c-5 0-9-4-9-9V54c0-5 4-9 9-9z" fill="none" stroke-linecap="round" stroke-linejoin="round" stroke-width="6" stroke="#6fca8f"/><circle cx="88" cy="66" r="6" fill="#f6cf58"/>
  </g>
  <g class="cfg-icon-cell" data-key="memory_analysis" data-slot="12" transform="translate(128 128)">
    <title>memory_analysis</title>
    <path d="M43 28c42 22 42 50 0 72M85 28c-42 22-42 50 0 72M48 44h32M44 64h40M48 84h32" fill="none" stroke-linecap="round" stroke-linejoin="round" stroke-width="6" stroke="#9b7cf0"/><circle cx="64" cy="64" r="6" fill="#35c7d3"/>
  </g>
  <g class="cfg-icon-cell" data-key="co_agents" data-slot="13" transform="translate(256 128)">
    <title>co_agents</title>
    <rect x="35" y="42" width="58" height="46" rx="13" fill="#7da3c8" opacity=".22"/><path d="M64 42V27M47 57h.1M81 57h.1M50 75h28" fill="none" stroke-linecap="round" stroke-linejoin="round" stroke-width="6" stroke="#7da3c8"/><rect x="35" y="42" width="58" height="46" rx="13" fill="none" stroke-linecap="round" stroke-linejoin="round" stroke-width="6" stroke="#7da3c8"/><circle cx="64" cy="27" r="5" fill="#35c7d3"/>
  </g>
  <g class="cfg-icon-cell" data-key="prompts_editor" data-slot="14" transform="translate(384 128)">
    <title>prompts_editor</title>
    <path d="M35 44c18-10 40-10 58 0v22c0 19-12 34-29 39-17-5-29-20-29-39z" fill="#9b7cf0" opacity=".2"/><path d="M46 63c8-6 17-6 26 0M76 63c8-6 17-6 26 0M52 82c10 8 24 8 34 0" fill="none" stroke-linecap="round" stroke-linejoin="round" stroke-width="6" stroke="#9b7cf0"/>
  </g>
  <g class="cfg-icon-cell" data-key="rules" data-slot="15" transform="translate(512 128)">
    <title>rules</title>
    <path d="M31 91 91 31l14 14-60 60z" fill="#7da3c8" opacity=".2"/><path d="M31 91 91 31l14 14-60 60zM57 79l-8-8M69 67l-8-8M81 55l-8-8" fill="none" stroke-linecap="round" stroke-linejoin="round" stroke-width="6" stroke="#7da3c8"/>
  </g>
  <g class="cfg-icon-cell" data-key="personality" data-slot="16" transform="translate(640 128)">
    <title>personality</title>
    <path d="M43 28c42 22 42 50 0 72M85 28c-42 22-42 50 0 72M48 44h32M44 64h40M48 84h32" fill="none" stroke-linecap="round" stroke-linejoin="round" stroke-width="6" stroke="#9b7cf0"/><circle cx="64" cy="64" r="6" fill="#ef6f78"/><text x="64" y="64" text-anchor="middle" dominant-baseline="middle" font-family="Geist, Inter, Segoe UI, Arial, sans-serif" font-size="17" font-weight="800" fill="#ef6f78">P</text>
  </g>
  <g class="cfg-icon-cell" data-key="vision" data-slot="17" transform="translate(768 128)">
    <title>vision</title>
    <path d="M24 64s15-27 40-27 40 27 40 27-15 27-40 27-40-27-40-27z" fill="#35c7d3" opacity=".18"/><path d="M24 64s15-27 40-27 40 27 40 27-15 27-40 27-40-27-40-27z" fill="none" stroke-linecap="round" stroke-linejoin="round" stroke-width="6" stroke="#35c7d3"/><circle cx="64" cy="64" r="13" fill="#4f8ee8"/>
  </g>
  <g class="cfg-icon-cell" data-key="output_compression" data-slot="18" transform="translate(896 128)">
    <title>output_compression</title>
    <path d="M31 42h26V28M97 86H71v14M57 28 31 54M71 100l26-26M86 42h-18M60 86H42" fill="none" stroke-linecap="round" stroke-linejoin="round" stroke-width="6" stroke="#7da3c8"/>
  </g>
  <g class="cfg-icon-cell" data-key="server" data-slot="19" transform="translate(1024 128)">
    <title>server</title>
    <rect x="31" y="28" width="66" height="72" rx="10" fill="#7da3c8" opacity=".16"/><path d="M31 38h66M31 64h66M31 90h66M45 51h.1M45 77h.1" fill="none" stroke-linecap="round" stroke-linejoin="round" stroke-width="6" stroke="#7da3c8"/><path d="M78 51h10M78 77h10" fill="none" stroke-linecap="round" stroke-linejoin="round" stroke-width="6" stroke="#35c7d3"/>
  </g>
  <g class="cfg-icon-cell" data-key="directories" data-slot="20" transform="translate(1152 128)">
    <title>directories</title>
    <path d="M23 44h33l10 11h39v40c0 6-4 10-10 10H33c-6 0-10-4-10-10z" fill="#f6cf58" opacity=".24"/><path d="M23 44h33l10 11h39v40c0 6-4 10-10 10H33c-6 0-10-4-10-10z" fill="none" stroke-linecap="round" stroke-linejoin="round" stroke-width="6" stroke="#f6cf58"/>
  </g>
  <g class="cfg-icon-cell" data-key="sqlite" data-slot="21" transform="translate(1280 128)">
    <title>sqlite</title>
    <ellipse cx="64" cy="35" rx="34" ry="13" fill="#4f8ee8" opacity=".22"/><path d="M30 35v48c0 7 15 13 34 13s34-6 34-13V35M30 59c0 7 15 13 34 13s34-6 34-13M30 83c0 7 15 13 34 13s34-6 34-13" fill="none" stroke-linecap="round" stroke-linejoin="round" stroke-width="6" stroke="#4f8ee8"/>
  </g>
  <g class="cfg-icon-cell" data-key="sql_connections" data-slot="22" transform="translate(0 256)">
    <title>sql_connections</title>
    <ellipse cx="42" cy="43" rx="21" ry="9" fill="none" stroke-linecap="round" stroke-linejoin="round" stroke-width="6" stroke="#4f8ee8"/><path d="M21 43v35c0 5 9 9 21 9s21-4 21-9V43M65 64h20M79 52l14 12-14 12" fill="none" stroke-linecap="round" stroke-linejoin="round" stroke-width="6" stroke="#4f8ee8"/><text x="64" y="98" text-anchor="middle" dominant-baseline="middle" font-family="Geist, Inter, Segoe UI, Arial, sans-serif" font-size="20" font-weight="800" fill="#6fca8f">SQL</text>
  </g>
  <g class="cfg-icon-cell" data-key="web_config" data-slot="23" transform="translate(128 256)">
    <title>web_config</title>
    <path d="M64 25 31 39v25c0 22 13 36 33 45 20-9 33-23 33-45V39z" fill="#35c7d3" opacity=".2"/><path d="M64 25 31 39v25c0 22 13 36 33 45 20-9 33-23 33-45V39z" fill="none" stroke-linecap="round" stroke-linejoin="round" stroke-width="6" stroke="#35c7d3"/>
  </g>
  <g class="cfg-icon-cell" data-key="logging" data-slot="24" transform="translate(256 256)">
    <title>logging</title>
    <path d="M38 25h35l19 19v59H38z" fill="#7da3c8" opacity=".16"/><path d="M38 25h35l19 19v59H38zM73 25v20h19M50 58h28M50 74h28M50 90h18" fill="none" stroke-linecap="round" stroke-linejoin="round" stroke-width="6" stroke="#7da3c8"/>
  </g>
  <g class="cfg-icon-cell" data-key="maintenance" data-slot="25" transform="translate(384 256)">
    <title>maintenance</title>
    <path d="M82 28a22 22 0 0 0-25 29L27 87l14 14 30-30a22 22 0 0 0 29-25L86 60 68 42z" fill="#7da3c8" opacity=".2"/><path d="M82 28a22 22 0 0 0-25 29L27 87l14 14 30-30a22 22 0 0 0 29-25L86 60 68 42z" fill="none" stroke-linecap="round" stroke-linejoin="round" stroke-width="6" stroke="#7da3c8"/>
  </g>
  <g class="cfg-icon-cell" data-key="backup_restore" data-slot="26" transform="translate(512 256)">
    <title>backup_restore</title>
    <path d="M33 26h49l13 13v63H33z" fill="#4f8ee8" opacity=".18"/><path d="M33 26h49l13 13v63H33zM48 26v29h29V26M49 82h30" fill="none" stroke-linecap="round" stroke-linejoin="round" stroke-width="6" stroke="#4f8ee8"/>
  </g>
  <g class="cfg-icon-cell" data-key="updates" data-slot="27" transform="translate(640 256)">
    <title>updates</title>
    <path d="M91 48A30 30 0 0 0 38 41M38 41h22M38 41v22M37 80a30 30 0 0 0 53 7M90 87H68M90 87V65" fill="none" stroke-linecap="round" stroke-linejoin="round" stroke-width="6" stroke="#35c7d3"/>
  </g>
  <g class="cfg-icon-cell" data-key="indexing" data-slot="28" transform="translate(768 256)">
    <title>indexing</title>
    <rect x="29" y="34" width="48" height="58" rx="8" fill="#7da3c8" opacity=".18"/><rect x="50" y="27" width="48" height="58" rx="8" fill="#35c7d3" opacity=".22"/><path d="M43 53h20M43 69h24M64 46h20M64 62h18" fill="none" stroke-linecap="round" stroke-linejoin="round" stroke-width="6" stroke="#7da3c8"/>
  </g>
  <g class="cfg-icon-cell" data-key="firewall" data-slot="29" transform="translate(896 256)">
    <title>firewall</title>
    <path d="M25 38h78v52H25zM25 55h78M25 72h78M44 38v17M68 38v17M56 55v17M80 55v17M44 72v18M68 72v18" fill="none" stroke-linecap="round" stroke-linejoin="round" stroke-width="6" stroke="#ef6f78"/>
  </g>
  <g class="cfg-icon-cell" data-key="tools" data-slot="30" transform="translate(1024 256)">
    <title>tools</title>
    <path d="M37 38h40M57 38v52M40 90h34M81 51l18-18M91 31l10 10M86 56l12 12" fill="none" stroke-linecap="round" stroke-linejoin="round" stroke-width="6" stroke="#7da3c8"/><circle cx="57" cy="90" r="10" fill="#35c7d3"/>
  </g>
  <g class="cfg-icon-cell" data-key="web_scraper" data-slot="31" transform="translate(1152 256)">
    <title>web_scraper</title>
    <rect x="25" y="33" width="78" height="62" rx="10" fill="#6fca8f" opacity=".16"/><path d="M25 50h78M42 42h.1M57 42h.1M35 76h26M72 66l20 10-20 10z" fill="none" stroke-linecap="round" stroke-linejoin="round" stroke-width="6" stroke="#6fca8f"/><text x="64" y="76" text-anchor="middle" dominant-baseline="middle" font-family="Geist, Inter, Segoe UI, Arial, sans-serif" font-size="20" font-weight="800" fill="#35c7d3">W</text>
  </g>
  <g class="cfg-icon-cell" data-key="browser_automation" data-slot="32" transform="translate(1280 256)">
    <title>browser_automation</title>
    <rect x="25" y="33" width="78" height="62" rx="10" fill="#4f8ee8" opacity=".16"/><path d="M25 50h78M42 42h.1M57 42h.1M35 76h26M72 66l20 10-20 10z" fill="none" stroke-linecap="round" stroke-linejoin="round" stroke-width="6" stroke="#4f8ee8"/>
  </g>
  <g class="cfg-icon-cell" data-key="space_agent" data-slot="33" transform="translate(0 384)">
    <title>space_agent</title>
    <path d="M55 55 73 73M46 46l-17-8 8 17zM82 82l17 8-8-17zM57 31l40 40M31 57l40 40" fill="none" stroke-linecap="round" stroke-linejoin="round" stroke-width="6" stroke="#4f8ee8"/><circle cx="64" cy="64" r="9" fill="#f6cf58"/>
  </g>
  <g class="cfg-icon-cell" data-key="virtual_desktop" data-slot="34" transform="translate(128 384)">
    <title>virtual_desktop</title>
    <rect x="25" y="31" width="78" height="52" rx="8" fill="#7da3c8" opacity=".18"/><path d="M25 31h78v52H25zM53 101h22M64 83v18" fill="none" stroke-linecap="round" stroke-linejoin="round" stroke-width="6" stroke="#7da3c8"/>
  </g>
  <g class="cfg-icon-cell" data-key="sandbox" data-slot="36" transform="translate(384 384)">
    <title>sandbox</title>
    <path d="m64 25 36 20v38l-36 20-36-20V45z" fill="#27b6a9" opacity=".2"/><path d="m64 25 36 20v38l-36 20-36-20V45zM28 45l36 20 36-20M64 65v38" fill="none" stroke-linecap="round" stroke-linejoin="round" stroke-width="6" stroke="#27b6a9"/>
  </g>
  <g class="cfg-icon-cell" data-key="info_tools" data-slot="37" transform="translate(512 384)">
    <title>info_tools</title>
    <circle cx="56" cy="56" r="25" fill="#35c7d3" opacity=".18"/><path d="M74 74 98 98M56 31a25 25 0 1 0 0 50 25 25 0 0 0 0-50z" fill="none" stroke-linecap="round" stroke-linejoin="round" stroke-width="6" stroke="#35c7d3"/>
  </g>
  <g class="cfg-icon-cell" data-key="network_tools" data-slot="38" transform="translate(640 384)">
    <title>network_tools</title>
    <path d="M64 87V59M42 37a32 32 0 0 1 44 0M31 25a48 48 0 0 1 66 0M53 49a16 16 0 0 1 22 0" fill="none" stroke-linecap="round" stroke-linejoin="round" stroke-width="6" stroke="#4f8ee8"/><circle cx="64" cy="91" r="10" fill="#35c7d3"/>
  </g>
  <g class="cfg-icon-cell" data-key="brave_search" data-slot="39" transform="translate(768 384)">
    <title>brave_search</title>
    <circle cx="56" cy="56" r="25" fill="#f28b54" opacity=".18"/><path d="M74 74 98 98M56 31a25 25 0 1 0 0 50 25 25 0 0 0 0-50z" fill="none" stroke-linecap="round" stroke-linejoin="round" stroke-width="6" stroke="#f28b54"/><text x="64" y="56" text-anchor="middle" dominant-baseline="middle" font-family="Geist, Inter, Segoe UI, Arial, sans-serif" font-size="22" font-weight="800" fill="#9b7cf0">B</text>
  </g>
  <g class="cfg-icon-cell" data-key="skill_manager" data-slot="40" transform="translate(896 384)">
    <title>skill_manager</title>
    <path d="M48 31h32v21c8-8 22-1 18 10-2 7-11 9-18 3v32H49V75c-8 8-22 1-18-10 2-7 11-9 18-3z" fill="#9b7cf0" opacity=".22"/><path d="M48 31h32v21c8-8 22-1 18 10-2 7-11 9-18 3v32H49V75c-8 8-22 1-18-10 2-7 11-9 18-3z" fill="none" stroke-linecap="round" stroke-linejoin="round" stroke-width="6" stroke="#9b7cf0"/>
  </g>
  <g class="cfg-icon-cell" data-key="daemon_skills" data-slot="41" transform="translate(1024 384)">
    <title>daemon_skills</title>
    <rect x="27" y="35" width="74" height="58" rx="10" fill="#7da3c8" opacity=".18"/><path d="m43 55 13 10-13 10M62 78h26" fill="none" stroke-linecap="round" stroke-linejoin="round" stroke-width="6" stroke="#7da3c8"/><text x="64" y="48" text-anchor="middle" dominant-baseline="middle" font-family="Geist, Inter, Segoe UI, Arial, sans-serif" font-size="18" font-weight="800" fill="#35c7d3">DS</text>
  </g>
  <g class="cfg-icon-cell" data-key="mission_preparation" data-slot="42" transform="translate(1152 384)">
    <title>mission_preparation</title>
    <circle cx="64" cy="64" r="38" fill="none" stroke-linecap="round" stroke-linejoin="round" stroke-width="6" stroke="#ef6f78"/><circle cx="64" cy="64" r="22" fill="none" stroke-linecap="round" stroke-linejoin="round" stroke-width="6" stroke="#35c7d3"/><circle cx="64" cy="64" r="8" fill="#ef6f78"/>
  </g>
  <g class="cfg-icon-cell" data-key="whisper" data-slot="43" transform="translate(1280 384)">
    <title>whisper</title>
    <rect x="50" y="25" width="28" height="48" rx="14" fill="#35c7d3" opacity=".2"/><path d="M50 49v10a14 14 0 0 0 28 0V49M36 57a28 28 0 0 0 56 0M64 85v19M50 104h28" fill="none" stroke-linecap="round" stroke-linejoin="round" stroke-width="6" stroke="#35c7d3"/>
  </g>
  <g class="cfg-icon-cell" data-key="tts" data-slot="44" transform="translate(0 512)">
    <title>tts</title>
    <path d="M30 55h17l23-20v58L47 73H30z" fill="#4f8ee8" opacity=".22"/><path d="M30 55h17l23-20v58L47 73H30zM82 52a20 20 0 0 1 0 24M93 42a35 35 0 0 1 0 44" fill="none" stroke-linecap="round" stroke-linejoin="round" stroke-width="6" stroke="#4f8ee8"/>
  </g>
  <g class="cfg-icon-cell" data-key="image_generation" data-slot="45" transform="translate(128 512)">
    <title>image_generation</title>
    <path d="M64 27c-23 0-40 15-40 36 0 20 15 37 36 37h7c7 0 9-9 4-13-5-5-1-14 7-14h8c11 0 18-7 18-18 0-17-17-28-40-28z" fill="#9b7cf0" opacity=".22"/><circle cx="48" cy="53" r="5" fill="#f6cf58"/><circle cx="64" cy="45" r="5" fill="#f6cf58"/><circle cx="80" cy="54" r="5" fill="#ef6f78"/><circle cx="55" cy="72" r="5" fill="#27b6a9"/>
  </g>
  <g class="cfg-icon-cell" data-key="music_generation" data-slot="46" transform="translate(256 512)">
    <title>music_generation</title>
    <path d="M78 30v48a12 12 0 1 1-7-11V42l27-7v36a12 12 0 1 1-7-11V30z" fill="#9b7cf0" opacity=".24"/><path d="M78 30v48M78 42l27-7v36" fill="none" stroke-linecap="round" stroke-linejoin="round" stroke-width="6" stroke="#9b7cf0"/><circle cx="66" cy="78" r="11" fill="#35c7d3"/><circle cx="93" cy="71" r="11" fill="#35c7d3"/>
  </g>
  <g class="cfg-icon-cell" data-key="video_generation" data-slot="47" transform="translate(384 512)">
    <title>video_generation</title>
    <rect x="28" y="38" width="54" height="48" rx="8" fill="#ef6f78" opacity=".2"/><path d="M82 54 104 42v40L82 70zM28 38h54v48H28z" fill="none" stroke-linecap="round" stroke-linejoin="round" stroke-width="6" stroke="#ef6f78"/>
  </g>
  <g class="cfg-icon-cell" data-key="media_conversion" data-slot="48" transform="translate(512 512)">
    <title>media_conversion</title>
    <rect x="28" y="32" width="72" height="64" rx="8" fill="#7da3c8" opacity=".18"/><path d="M44 32v64M84 32v64M28 48h16M28 80h16M84 48h16M84 80h16" fill="none" stroke-linecap="round" stroke-linejoin="round" stroke-width="6" stroke="#7da3c8"/>
  </g>
  <g class="cfg-icon-cell" data-key="video_download" data-slot="49" transform="translate(640 512)">
    <title>video_download</title>
    <rect x="31" y="83" width="66" height="18" rx="8" fill="#4f8ee8" opacity=".18"/><path d="M64 28v50M45 59l19 19 19-19M37 101h54" fill="none" stroke-linecap="round" stroke-linejoin="round" stroke-width="6" stroke="#4f8ee8"/>
  </g>
  <g class="cfg-icon-cell" data-key="document_creator" data-slot="50" transform="translate(768 512)">
    <title>document_creator</title>
    <path d="M38 25h35l19 19v59H38z" fill="#7da3c8" opacity=".16"/><path d="M38 25h35l19 19v59H38zM73 25v20h19M50 58h28M50 74h28M50 90h18" fill="none" stroke-linecap="round" stroke-linejoin="round" stroke-width="6" stroke="#7da3c8"/>
  </g>
  <g class="cfg-icon-cell" data-key="docker" data-slot="51" transform="translate(896 512)">
    <title>docker</title>
    <g fill="#2496ed"><rect x="30" y="53" width="14" height="12" rx="2"/><rect x="47" y="53" width="14" height="12" rx="2"/><rect x="64" y="53" width="14" height="12" rx="2"/><rect x="47" y="38" width="14" height="12" rx="2"/><rect x="64" y="38" width="14" height="12" rx="2"/><rect x="81" y="53" width="14" height="12" rx="2"/><path d="M24 69h75c-4 18-19 28-43 28-17 0-28-6-32-28z"/></g><path d="M98 59c7 0 11 4 13 10-6 1-11 0-16-5" fill="none" stroke-linecap="round" stroke-linejoin="round" stroke-width="6" stroke="#ffffff"/>
  </g>
  <g class="cfg-icon-cell" data-key="s3" data-slot="52" transform="translate(1024 512)">
    <title>s3</title>
    <path d="M33 43c0-9 14-16 31-16s31 7 31 16L88 98c-4 5-15 8-24 8s-20-3-24-8z" fill="#f28b54" opacity=".22"/><path d="M33 43c0 9 14 16 31 16s31-7 31-16M33 43l7 55c4 5 15 8 24 8s20-3 24-8l7-55" fill="none" stroke-linecap="round" stroke-linejoin="round" stroke-width="6" stroke="#f28b54"/><text x="64" y="76" text-anchor="middle" dominant-baseline="middle" font-family="Geist, Inter, Segoe UI, Arial, sans-serif" font-size="20" font-weight="800" fill="#f6cf58">S3</text>
  </g>
  <g class="cfg-icon-cell" data-key="webdav" data-slot="53" transform="translate(1152 512)">
    <title>webdav</title>
    <path d="M42 86h43a19 19 0 0 0 2-38 28 28 0 0 0-53 9 15 15 0 0 0 8 29z" fill="#4f8ee8" opacity=".22"/><path d="M42 86h43a19 19 0 0 0 2-38 28 28 0 0 0-53 9 15 15 0 0 0 8 29z" fill="none" stroke-linecap="round" stroke-linejoin="round" stroke-width="6" stroke="#4f8ee8"/><text x="64" y="68" text-anchor="middle" dominant-baseline="middle" font-family="Geist, Inter, Segoe UI, Arial, sans-serif" font-size="20" font-weight="800" fill="#35c7d3">W</text>
  </g>
  <g class="cfg-icon-cell" data-key="koofr" data-slot="54" transform="translate(1280 512)">
    <title>koofr</title>
    <path d="m64 25 36 20v38l-36 20-36-20V45z" fill="#2d8be8" opacity=".2"/><path d="m64 25 36 20v38l-36 20-36-20V45zM28 45l36 20 36-20M64 65v38" fill="none" stroke-linecap="round" stroke-linejoin="round" stroke-width="6" stroke="#2d8be8"/><text x="64" y="65" text-anchor="middle" dominant-baseline="middle" font-family="Geist, Inter, Segoe UI, Arial, sans-serif" font-size="20" font-weight="800" fill="#35c7d3">K</text>
  </g>
  <g class="cfg-icon-cell" data-key="netlify" data-slot="55" transform="translate(0 640)">
    <title>netlify</title>
    <path d="m64 22 18 31 34 11-34 11-18 31-18-31-34-11 34-11z" fill="#00c7b7" opacity=".28"/><path d="M64 22v84M22 64h84M46 53l36 22M82 53 46 75" fill="none" stroke-linecap="round" stroke-linejoin="round" stroke-width="6" stroke="#00c7b7"/>
  </g>
  <g class="cfg-icon-cell" data-key="vercel" data-slot="56" transform="translate(128 640)">
    <title>vercel</title>
    <path d="m64 28 42 72H22z" fill="#f8fafc"/><path d="m64 50 22 38H42z" fill="#7da3c8" opacity=".5"/>
  </g>
  <g class="cfg-icon-cell" data-key="cloudflare_tunnel" data-slot="57" transform="translate(256 640)">
    <title>cloudflare_tunnel</title>
    <path d="M35 80h52c9 0 15-5 15-13 0-7-5-12-12-13-3-14-15-24-30-24-16 0-29 11-31 27-8 1-14 7-14 14 0 6 7 9 20 9z" fill="#f38020"/><path d="M52 91h38c9 0 17-6 19-14H70c-9 0-15 4-18 14z" fill="#faae40"/>
  </g>
  <g class="cfg-icon-cell" data-key="homepage" data-slot="58" transform="translate(384 640)">
    <title>homepage</title>
    <path d="M27 60 64 29l37 31v42H75V76H53v26H27z" fill="#4f8ee8" opacity=".22"/><path d="M27 60 64 29l37 31M37 57v45h16V76h22v26h16V57" fill="none" stroke-linecap="round" stroke-linejoin="round" stroke-width="6" stroke="#4f8ee8"/>
  </g>
  <g class="cfg-icon-cell" data-key="telegram" data-slot="59" transform="translate(512 640)">
    <title>telegram</title>
    <circle cx="64" cy="64" r="39" fill="#2aabee"/><path d="M43 63 89 42 80 89 66 75 58 84 57 70z" fill="#ffffff"/><path d="m57 70 29-25-20 30" fill="none" stroke-linecap="round" stroke-linejoin="round" stroke-width="6" stroke="#2aabee" stroke-width="4"/>
  </g>
  <g class="cfg-icon-cell" data-key="discord" data-slot="60" transform="translate(640 640)">
    <title>discord</title>
    <path d="M42 42c15-8 29-8 44 0l8 34c-8 8-16 12-25 13l-5-8-5 8c-9-1-17-5-25-13z" fill="#5865f2"/><circle cx="53" cy="63" r="5" fill="#ffffff"/><circle cx="75" cy="63" r="5" fill="#ffffff"/><path d="M51 77c9 5 17 5 26 0" fill="none" stroke-linecap="round" stroke-linejoin="round" stroke-width="6" stroke="#ffffff" stroke-width="4"/>
  </g>
  <g class="cfg-icon-cell" data-key="rocketchat" data-slot="61" transform="translate(768 640)">
    <title>rocketchat</title>
    <path d="M32 43h61c7 0 12 5 12 12v20c0 7-5 12-12 12H58l-21 14V87h-5c-7 0-12-5-12-12V55c0-7 5-12 12-12z" fill="#f5455c" opacity=".9"/><path d="M42 63h43M42 76h28" fill="none" stroke-linecap="round" stroke-linejoin="round" stroke-width="6" stroke="#f6cf58" stroke-width="5"/>
  </g>
  <g class="cfg-icon-cell" data-key="telnyx" data-slot="62" transform="translate(896 640)">
    <title>telnyx</title>
    <path d="M46 28h36c6 0 10 4 10 10v52c0 6-4 10-10 10H46c-6 0-10-4-10-10V38c0-6 4-10 10-10z" fill="#7b61ff" opacity=".2"/><path d="M51 41h26M55 88h18M36 46l56 36" fill="none" stroke-linecap="round" stroke-linejoin="round" stroke-width="6" stroke="#7b61ff"/>
  </g>
  <g class="cfg-icon-cell" data-key="email" data-slot="63" transform="translate(1024 640)">
    <title>email</title>
    <rect x="26" y="40" width="76" height="54" rx="9" fill="#7da3c8" opacity=".18"/><path d="M26 45 64 71l38-26M26 40h76v54H26z" fill="none" stroke-linecap="round" stroke-linejoin="round" stroke-width="6" stroke="#7da3c8"/>
  </g>
  <g class="cfg-icon-cell" data-key="agentmail" data-slot="64" transform="translate(1152 640)">
    <title>agentmail</title>
    <circle cx="64" cy="64" r="37" fill="none" stroke-linecap="round" stroke-linejoin="round" stroke-width="6" stroke="#35c7d3"/><text x="64" y="65" text-anchor="middle" dominant-baseline="middle" font-family="Geist, Inter, Segoe UI, Arial, sans-serif" font-size="38" font-weight="800" fill="#4f8ee8">@</text>
  </g>
  <g class="cfg-icon-cell" data-key="webhooks" data-slot="65" transform="translate(1280 640)">
    <title>webhooks</title>
    <circle cx="38" cy="46" r="12" fill="#6fca8f"/><circle cx="90" cy="46" r="12" fill="#35c7d3"/><circle cx="64" cy="88" r="12" fill="#6fca8f"/><path d="M50 46h28M44 57l14 21M84 57 70 78" fill="none" stroke-linecap="round" stroke-linejoin="round" stroke-width="6" stroke="#9eb3c9"/>
  </g>
  <g class="cfg-icon-cell" data-key="notifications" data-slot="66" transform="translate(0 768)">
    <title>notifications</title>
    <path d="M43 77V57c0-13 9-24 21-24s21 11 21 24v20l10 13H33z" fill="#f6cf58" opacity=".25"/><path d="M43 77V57c0-13 9-24 21-24s21 11 21 24v20l10 13H33zM54 98c5 7 15 7 20 0" fill="none" stroke-linecap="round" stroke-linejoin="round" stroke-width="6" stroke="#f6cf58"/>
  </g>
  <g class="cfg-icon-cell" data-key="github" data-slot="67" transform="translate(128 768)">
    <title>github</title>
    <circle cx="64" cy="64" r="39" fill="#f8fafc"/><path d="M48 91c0-8 0-13 6-16-12-2-20-10-20-23 0-6 2-11 6-15-1-4-1-9 1-14 8 0 13 4 16 6 5-1 9-1 14 0 3-2 8-6 16-6 2 5 2 10 1 14 4 4 6 9 6 15 0 13-8 21-20 23 6 3 6 8 6 16" fill="none" stroke-linecap="round" stroke-linejoin="round" stroke-width="6" stroke="#111827"/>
  </g>
  <g class="cfg-icon-cell" data-key="google_workspace" data-slot="68" transform="translate(256 768)">
    <title>google_workspace</title>
    <path d="M97 65c0 20-14 35-33 35-20 0-36-16-36-36s16-36 36-36c9 0 17 3 24 9L77 49c-4-3-8-5-13-5-11 0-20 9-20 20s9 20 20 20c9 0 15-5 17-13H64V58h32c1 2 1 5 1 7z" fill="#4285f4"/><path d="M31 52c4-14 17-24 33-24 9 0 17 3 24 9" fill="none" stroke-linecap="round" stroke-linejoin="round" stroke-width="6" stroke="#ea4335" /><path d="M31 76c5 14 17 24 33 24 15 0 27-9 32-23" fill="none" stroke-linecap="round" stroke-linejoin="round" stroke-width="6" stroke="#34a853" />
  </g>
  <g class="cfg-icon-cell" data-key="paperless_ngx" data-slot="69" transform="translate(384 768)">
    <title>paperless_ngx</title>
    <path d="M38 25h35l19 19v59H38z" fill="#6fca8f" opacity=".16"/><path d="M38 25h35l19 19v59H38zM73 25v20h19M50 58h28M50 74h28M50 90h18" fill="none" stroke-linecap="round" stroke-linejoin="round" stroke-width="6" stroke="#6fca8f"/><text x="64" y="76" text-anchor="middle" dominant-baseline="middle" font-family="Geist, Inter, Segoe UI, Arial, sans-serif" font-size="22" font-weight="800" fill="#7da3c8">P</text>
  </g>
  <g class="cfg-icon-cell" data-key="obsidian" data-slot="70" transform="translate(512 768)">
    <title>obsidian</title>
    <path d="m64 22 38 42-38 42-38-42z" fill="#7c3aed" opacity=".24"/><path d="m64 22 38 42-38 42-38-42zM26 64h76M64 22l-16 42 16 42 16-42z" fill="none" stroke-linecap="round" stroke-linejoin="round" stroke-width="6" stroke="#7c3aed"/>
  </g>
  <g class="cfg-icon-cell" data-key="yepapi" data-slot="71" transform="translate(640 768)">
    <title>yepapi</title>
    <path d="m64 25 35 20v38l-35 20-35-20V45z" fill="#35c7d3" opacity=".22"/><path d="m64 25 35 20v38l-35 20-35-20V45z" fill="none" stroke-linecap="round" stroke-linejoin="round" stroke-width="6" stroke="#35c7d3"/><text x="64" y="65" text-anchor="middle" dominant-baseline="middle" font-family="Geist, Inter, Segoe UI, Arial, sans-serif" font-size="25" font-weight="800" fill="#4f8ee8">Y</text>
  </g>
  <g class="cfg-icon-cell" data-key="home_assistant" data-slot="72" transform="translate(768 768)">
    <title>home_assistant</title>
    <circle cx="64" cy="64" r="39" fill="#18bcf2"/><path d="M43 70 64 46l21 24M52 65v22h24V65M64 46v41" fill="none" stroke-linecap="round" stroke-linejoin="round" stroke-width="6" stroke="#ffffff"/>
  </g>
  <g class="cfg-icon-cell" data-key="mqtt" data-slot="73" transform="translate(896 768)">
    <title>mqtt</title>
    <path d="M64 87V59M42 37a32 32 0 0 1 44 0M31 25a48 48 0 0 1 66 0M53 49a16 16 0 0 1 22 0" fill="none" stroke-linecap="round" stroke-linejoin="round" stroke-width="6" stroke="#6fca8f"/><circle cx="64" cy="91" r="10" fill="#35c7d3"/><text x="64" y="94" text-anchor="middle" dominant-baseline="middle" font-family="Geist, Inter, Segoe UI, Arial, sans-serif" font-size="16" font-weight="800" fill="#6fca8f">M</text>
  </g>
  <g class="cfg-icon-cell" data-key="chromecast" data-slot="74" transform="translate(1024 768)">
    <title>chromecast</title>
    <rect x="29" y="36" width="70" height="48" rx="7" fill="#4285f4" opacity=".2"/><path d="M29 36h70v48H29zM31 95a28 28 0 0 1 28 28M31 79a44 44 0 0 1 44 44M31 106h.1" fill="none" stroke-linecap="round" stroke-linejoin="round" stroke-width="6" stroke="#4285f4"/>
  </g>
  <g class="cfg-icon-cell" data-key="adguard" data-slot="75" transform="translate(1152 768)">
    <title>adguard</title>
    <path d="M64 23 32 37v27c0 22 14 36 32 43 18-7 32-21 32-43V37z" fill="#67b279"/><path d="m47 65 12 12 26-31" fill="none" stroke-linecap="round" stroke-linejoin="round" stroke-width="6" stroke="#ffffff" stroke-width="7"/>
  </g>
  <g class="cfg-icon-cell" data-key="fritzbox" data-slot="76" transform="translate(1280 768)">
    <title>fritzbox</title>
    <rect x="27" y="61" width="74" height="32" rx="10" fill="#ef6f78" opacity=".2"/><path d="M27 61h74v32H27zM43 77h.1M59 77h.1M76 77h12M45 52a28 28 0 0 1 38 0M55 43a14 14 0 0 1 18 0" fill="none" stroke-linecap="round" stroke-linejoin="round" stroke-width="6" stroke="#ef6f78"/><text x="64" y="77" text-anchor="middle" dominant-baseline="middle" font-family="Geist, Inter, Segoe UI, Arial, sans-serif" font-size="16" font-weight="800" fill="#7da3c8">F</text>
  </g>
  <g class="cfg-icon-cell" data-key="ldap" data-slot="77" transform="translate(0 896)">
    <title>ldap</title>
    <rect x="33" y="26" width="62" height="76" rx="9" fill="#7da3c8" opacity=".18"/><path d="M47 26v76M60 49h22M60 66h22M60 83h14" fill="none" stroke-linecap="round" stroke-linejoin="round" stroke-width="6" stroke="#7da3c8"/>
  </g>
  <g class="cfg-icon-cell" data-key="truenas" data-slot="78" transform="translate(128 896)">
    <title>truenas</title>
    <path d="m64 22 21 12v24L64 70 43 58V34z" fill="#0095d5"/><path d="m31 66 21 12v24L31 114 10 102V78zM97 66l21 12v24l-21 12-21-12V78z" fill="#00aeef" opacity=".82"/><path d="M43 58 31 66M85 58l12 8M52 78l12-8 12 8" fill="none" stroke-linecap="round" stroke-linejoin="round" stroke-width="6" stroke="#9eb3c9" stroke-width="4"/>
  </g>
  <g class="cfg-icon-cell" data-key="uptime_kuma" data-slot="79" transform="translate(256 896)">
    <title>uptime_kuma</title>
    <path d="M27 92h74M36 82l16-18 14 10 26-34" fill="none" stroke-linecap="round" stroke-linejoin="round" stroke-width="6" stroke="#6fca8f"/><circle cx="52" cy="64" r="6" fill="#35c7d3"/><circle cx="66" cy="74" r="6" fill="#35c7d3"/><circle cx="92" cy="40" r="6" fill="#6fca8f"/>
  </g>
  <g class="cfg-icon-cell" data-key="jellyfin" data-slot="80" transform="translate(384 896)">
    <title>jellyfin</title>
    <path d="m64 22 43 75H21z" fill="#aa5cc3" opacity=".9"/><path d="m64 46 22 39H42z" fill="#00a4dc"/><path d="m64 62 11 19H53z" fill="#111827" opacity=".55"/>
  </g>
  <g class="cfg-icon-cell" data-key="tailscale" data-slot="81" transform="translate(512 896)">
    <title>tailscale</title>
    <g fill="#f8fafc"><circle cx="44" cy="44" r="8"/><circle cx="64" cy="44" r="8"/><circle cx="84" cy="44" r="8"/><circle cx="44" cy="64" r="8"/><circle cx="64" cy="64" r="8"/><circle cx="84" cy="64" r="8"/><circle cx="44" cy="84" r="8"/><circle cx="64" cy="84" r="8"/><circle cx="84" cy="84" r="8"/></g>
  </g>
  <g class="cfg-icon-cell" data-key="proxmox" data-slot="82" transform="translate(640 896)">
    <title>proxmox</title>
    <path d="M28 38h30l16 26-16 26H28l16-26z" fill="#e57000"/><path d="M70 38h30L84 64l16 26H70L54 64z" fill="#28394a"/><path d="M49 45 79 83M79 45 49 83" fill="none" stroke-linecap="round" stroke-linejoin="round" stroke-width="6" stroke="#f8fafc" stroke-width="5"/>
  </g>
  <g class="cfg-icon-cell" data-key="frigate" data-slot="83" transform="translate(768 896)">
    <title>frigate</title>
    <path d="M31 44h18l7-10h24l7 10h10v48H31z" fill="#7da3c8" opacity=".2"/><path d="M31 44h18l7-10h24l7 10h10v48H31z" fill="none" stroke-linecap="round" stroke-linejoin="round" stroke-width="6" stroke="#7da3c8"/><circle cx="64" cy="68" r="16" fill="none" stroke-linecap="round" stroke-linejoin="round" stroke-width="6" stroke="#35c7d3"/>
  </g>
  <g class="cfg-icon-cell" data-key="three_d_printers" data-slot="84" transform="translate(896 896)">
    <title>three_d_printers</title>
    <path d="M34 35h60M64 35v25M45 60h38l10 35H35zM48 83h32" fill="none" stroke-linecap="round" stroke-linejoin="round" stroke-width="6" stroke="#f28b54"/><text x="64" y="69" text-anchor="middle" dominant-baseline="middle" font-family="Geist, Inter, Segoe UI, Arial, sans-serif" font-size="21" font-weight="800" fill="#7da3c8">3D</text>
  </g>
  <g class="cfg-icon-cell" data-key="remote_control" data-slot="85" transform="translate(1024 896)">
    <title>remote_control</title>
    <path d="M40 27 92 77 69 81 57 103z" fill="#35c7d3" opacity=".26"/><path d="M40 27 92 77 69 81 57 103z" fill="none" stroke-linecap="round" stroke-linejoin="round" stroke-width="6" stroke="#35c7d3"/>
  </g>
  <g class="cfg-icon-cell" data-key="grafana" data-slot="86" transform="translate(1152 896)">
    <title>grafana</title>
    <circle cx="64" cy="64" r="29" fill="none" stroke-linecap="round" stroke-linejoin="round" stroke-width="6" stroke="#f46800"/><path d="M42 64h44M64 42v44" fill="none" stroke-linecap="round" stroke-linejoin="round" stroke-width="6" stroke="#f6cf58"/><text x="64" y="64" text-anchor="middle" dominant-baseline="middle" font-family="Geist, Inter, Segoe UI, Arial, sans-serif" font-size="16" font-weight="800" fill="#f6cf58">85</text>
  </g>
  <g class="cfg-icon-cell" data-key="meshcentral" data-slot="87" transform="translate(1280 896)">
    <title>meshcentral</title>
    <circle cx="37" cy="64" r="12" fill="#4f8ee8"/><circle cx="91" cy="39" r="12" fill="#35c7d3"/><circle cx="91" cy="89" r="12" fill="#4f8ee8"/><path d="M48 59 80 44M48 69l32 15" fill="none" stroke-linecap="round" stroke-linejoin="round" stroke-width="6" stroke="#9eb3c9"/>
  </g>
  <g class="cfg-icon-cell" data-key="ansible" data-slot="88" transform="translate(0 1024)">
    <title>ansible</title>
    <circle cx="64" cy="64" r="39" fill="#f8fafc"/><path d="m64 32 25 62-25-15-25 15zM64 32v47" fill="#111827"/>
  </g>
  <g class="cfg-icon-cell" data-key="security_proxy" data-slot="89" transform="translate(128 1024)">
    <title>security_proxy</title>
    <path d="M64 25 31 39v25c0 22 13 36 33 45 20-9 33-23 33-45V39z" fill="#7da3c8" opacity=".2"/><path d="M64 25 31 39v25c0 22 13 36 33 45 20-9 33-23 33-45V39z" fill="none" stroke-linecap="round" stroke-linejoin="round" stroke-width="6" stroke="#7da3c8"/><text x="64" y="66" text-anchor="middle" dominant-baseline="middle" font-family="Geist, Inter, Segoe UI, Arial, sans-serif" font-size="23" font-weight="800" fill="#35c7d3">P</text>
  </g>
  <g class="cfg-icon-cell" data-key="guardian" data-slot="90" transform="translate(256 1024)">
    <title>guardian</title>
    <path d="M64 25 31 39v25c0 22 13 36 33 45 20-9 33-23 33-45V39z" fill="#35c7d3" opacity=".2"/><path d="M64 25 31 39v25c0 22 13 36 33 45 20-9 33-23 33-45V39z" fill="none" stroke-linecap="round" stroke-linejoin="round" stroke-width="6" stroke="#35c7d3"/><path d="m49 66 11 11 22-27" fill="none" stroke-linecap="round" stroke-linejoin="round" stroke-width="6" stroke="#6fca8f"/>
  </g>
  <g class="cfg-icon-cell" data-key="llm_guardian" data-slot="91" transform="translate(384 1024)">
    <title>llm_guardian</title>
    <path d="M64 25 31 39v25c0 22 13 36 33 45 20-9 33-23 33-45V39z" fill="#9b7cf0" opacity=".2"/><path d="M64 25 31 39v25c0 22 13 36 33 45 20-9 33-23 33-45V39z" fill="none" stroke-linecap="round" stroke-linejoin="round" stroke-width="6" stroke="#9b7cf0"/><rect x="48" y="53" width="32" height="24" rx="8" fill="#35c7d3"/><circle cx="58" cy="65" r="3" fill="#0f172a"/><circle cx="70" cy="65" r="3" fill="#0f172a"/>
  </g>
  <g class="cfg-icon-cell" data-key="virustotal" data-slot="92" transform="translate(512 1024)">
    <title>virustotal</title>
    <circle cx="64" cy="64" r="34" fill="#394eff" opacity=".9"/><path d="M64 29v70M29 64h70M39 39l50 50M89 39 39 89" fill="none" stroke-linecap="round" stroke-linejoin="round" stroke-width="6" stroke="#35c7d3" stroke-width="5"/>
  </g>
  <g class="cfg-icon-cell" data-key="ai_gateway" data-slot="93" transform="translate(640 1024)">
    <title>ai_gateway</title>
    <path d="M28 64h25M75 64h25M64 53v-25M64 75v25" fill="none" stroke-linecap="round" stroke-linejoin="round" stroke-width="6" stroke="#4f8ee8"/><rect x="53" y="53" width="22" height="22" rx="6" fill="#35c7d3"/><circle cx="28" cy="64" r="8" fill="#4f8ee8"/><circle cx="100" cy="64" r="8" fill="#4f8ee8"/><text x="64" y="105" text-anchor="middle" dominant-baseline="middle" font-family="Geist, Inter, Segoe UI, Arial, sans-serif" font-size="17" font-weight="800" fill="#35c7d3">AI</text>
  </g>
  <g class="cfg-icon-cell" data-key="composio" data-slot="94" transform="translate(768 1024)">
    <title>composio</title>
    <path d="m64 22 38 42-38 42-38-42z" fill="#6d5dfc" opacity=".24"/><path d="m64 22 38 42-38 42-38-42zM26 64h76M64 22l-16 42 16 42 16-42z" fill="none" stroke-linecap="round" stroke-linejoin="round" stroke-width="6" stroke="#6d5dfc"/><text x="64" y="65" text-anchor="middle" dominant-baseline="middle" font-family="Geist, Inter, Segoe UI, Arial, sans-serif" font-size="19" font-weight="800" fill="#35c7d3">C</text>
  </g>
  <g class="cfg-icon-cell" data-key="huggingface" data-slot="95" transform="translate(896 1024)">
    <title>huggingface</title>
    <circle cx="64" cy="64" r="38" fill="#ffd21e"/><circle cx="51" cy="57" r="5" fill="#111827"/><circle cx="77" cy="57" r="5" fill="#111827"/><path d="M48 76c9 9 23 9 32 0" fill="none" stroke-linecap="round" stroke-linejoin="round" stroke-width="6" stroke="#111827" stroke-width="5"/><text x="64" y="95" text-anchor="middle" dominant-baseline="middle" font-family="Geist, Inter, Segoe UI, Arial, sans-serif" font-size="17" font-weight="800" fill="#111827">HF</text>
  </g>
  <g class="cfg-icon-cell" data-key="evomap" data-slot="96" transform="translate(1024 1024)">
    <title>evomap</title>
    <path d="M26 36 52 26l24 10 26-10v66l-26 10-24-10-26 10z" fill="#6fca8f" opacity=".18"/><path d="M52 26v66M76 36v66M38 78c16-28 37-31 52-11" fill="none" stroke-linecap="round" stroke-linejoin="round" stroke-width="6" stroke="#6fca8f"/>
  </g>
  <g class="cfg-icon-cell" data-key="mcp" data-slot="97" transform="translate(1152 1024)">
    <title>mcp</title>
    <path d="M48 29v24M80 29v24M42 53h44v15c0 12-10 22-22 22S42 80 42 68zM64 90v14" fill="none" stroke-linecap="round" stroke-linejoin="round" stroke-width="6" stroke="#9b7cf0"/><path d="M48 68h32" fill="none" stroke-linecap="round" stroke-linejoin="round" stroke-width="6" stroke="#35c7d3"/><text x="64" y="64" text-anchor="middle" dominant-baseline="middle" font-family="Geist, Inter, Segoe UI, Arial, sans-serif" font-size="18" font-weight="800" fill="#35c7d3">M</text>
  </g>
  <g class="cfg-icon-cell" data-key="mcp_server" data-slot="98" transform="translate(1280 1024)">
    <title>mcp_server</title>
    <rect x="31" y="28" width="66" height="72" rx="10" fill="#9b7cf0" opacity=".16"/><path d="M31 38h66M31 64h66M31 90h66M45 51h.1M45 77h.1" fill="none" stroke-linecap="round" stroke-linejoin="round" stroke-width="6" stroke="#9b7cf0"/><path d="M78 51h10M78 77h10" fill="none" stroke-linecap="round" stroke-linejoin="round" stroke-width="6" stroke="#35c7d3"/><text x="64" y="64" text-anchor="middle" dominant-baseline="middle" font-family="Geist, Inter, Segoe UI, Arial, sans-serif" font-size="18" font-weight="800" fill="#35c7d3">M</text>
  </g>
  <g class="cfg-icon-cell" data-key="a2a" data-slot="99" transform="translate(0 1152)">
    <title>a2a</title>
    <path d="M31 48h42M61 36l12 12-12 12M97 80H55M67 68 55 80l12 12" fill="none" stroke-linecap="round" stroke-linejoin="round" stroke-width="6" stroke="#35c7d3"/><text x="64" y="64" text-anchor="middle" dominant-baseline="middle" font-family="Geist, Inter, Segoe UI, Arial, sans-serif" font-size="17" font-weight="800" fill="#4f8ee8">A2A</text>
  </g>
  <g class="cfg-icon-cell" data-key="ollama" data-slot="100" transform="translate(128 1152)">
    <title>ollama</title>
    <circle cx="64" cy="64" r="38" fill="#f8fafc"/><circle cx="64" cy="64" r="20" fill="#7da3c8" opacity=".65"/><circle cx="64" cy="64" r="9" fill="#f8fafc"/><text x="64" y="105" text-anchor="middle" dominant-baseline="middle" font-family="Geist, Inter, Segoe UI, Arial, sans-serif" font-size="18" font-weight="800" fill="#7da3c8">O</text>
  </g>
  <g class="cfg-icon-cell" data-key="danger_zone" data-slot="101" transform="translate(256 1152)">
    <title>danger_zone</title>
    <path d="m64 24 42 76H22z" fill="#ef6f78" opacity=".26"/><path d="m64 24 42 76H22zM64 50v25M64 90h.1" fill="none" stroke-linecap="round" stroke-linejoin="round" stroke-width="6" stroke="#ef6f78"/>
  </g>
  <g class="cfg-icon-cell" data-key="virtual_computers" data-slot="35" transform="translate(256 384)">
    <title>virtual_computers</title>
    <rect x="24" y="28" width="80" height="52" rx="9" fill="#7da3c8" opacity=".18"/><path d="M24 28h80v52H24zM44 96h40M64 80v16M43 52l10 10-10 10M61 72h24" fill="none" stroke-linecap="round" stroke-linejoin="round" stroke-width="6" stroke="#7da3c8"/><circle cx="92" cy="36" r="10" fill="#35c7d3"/>
  </g>
</svg>
