<svg xmlns="http://www.w3.org/2000/svg" id="tool-icons-grid" viewBox="0 0 320 320">
<rect width="320" height="320" fill="none"/>
<g data-slot="0" data-key="thinking" transform="translate(0 0)">
<title>Thinking</title>
<rect x="2" y="2" width="28" height="28" rx="8" fill="#7c4d13"/>
<path d="M5 4h22a8 8 0 0 1 1 1v10C21 12 12 15 4 25V6a8 8 0 0 1 1-2z" fill="#f6c453" opacity=".92"/>
<g><path d="M11 14a5 5 0 1110 0c0 2-2 3-2 5h-6c0-2-2-3-2-5zM13 23h6M14 27h4" fill="none" stroke="white" stroke-width="2" stroke-linecap="round" stroke-linejoin="round"/></g>
</g>
<g data-slot="1" data-key="coding" transform="translate(32 0)">
<title>Coding</title>
<rect x="2" y="2" width="28" height="28" rx="8" fill="#1d4ed8"/>
<path d="M5 4h22a8 8 0 0 1 1 1v10C21 12 12 15 4 25V6a8 8 0 0 1 1-2z" fill="#60a5fa" opacity=".92"/>
<g><path d="M12 10l-6 6 6 6M20 10l6 6-6 6M18 7l-4 18" fill="none" stroke="white" stroke-width="2" stroke-linecap="round" stroke-linejoin="round"/></g>
</g>
<g data-slot="2" data-key="co_agent_spawn" transform="translate(64 0)">
<title>Co-agent</title>
<rect x="2" y="2" width="28" height="28" rx="8" fill="#6d28d9"/>
<path d="M5 4h22a8 8 0 0 1 1 1v10C21 12 12 15 4 25V6a8 8 0 0 1 1-2z" fill="#a78bfa" opacity=".92"/>
<g><rect x="8" y="10" width="16" height="12" rx="4" fill="none" stroke="white" stroke-width="2"/><path d="M16 10V6M11 25h10" stroke="white" stroke-width="2" stroke-linecap="round"/><circle cx="13" cy="16" r="1.4" fill="white"/><circle cx="19" cy="16" r="1.4" fill="white"/></g>
</g>
<g data-slot="3" data-key="execute_shell" transform="translate(96 0)">
<title>Shell</title>
<rect x="2" y="2" width="28" height="28" rx="8" fill="#047857"/>
<path d="M5 4h22a8 8 0 0 1 1 1v10C21 12 12 15 4 25V6a8 8 0 0 1 1-2z" fill="#34d399" opacity=".92"/>
<g><path d="M7 10h18v12H7z" rx="2" fill="none" stroke="white" stroke-width="2"/><path d="M10 14l3 2.5-3 2.5M15 20h5" fill="none" stroke="white" stroke-width="2" stroke-linecap="round"/></g>
</g>
<g data-slot="4" data-key="execute_python" transform="translate(128 0)">
<title>Python</title>
<rect x="2" y="2" width="28" height="28" rx="8" fill="#2563eb"/>
<path d="M5 4h22a8 8 0 0 1 1 1v10C21 12 12 15 4 25V6a8 8 0 0 1 1-2z" fill="#fbbf24" opacity=".92"/>
<g><path d="M10 9h8a4 4 0 014 4v2h-8a4 4 0 00-4 4v4H9a4 4 0 01-4-4v-6a4 4 0 014-4h1z" fill="none" stroke="white" stroke-width="2"/><circle cx="13" cy="12" r="1.2" fill="white"/><path d="M22 23h-8a4 4 0 01-4-4v-2h8a4 4 0 004-4V9h1a4 4 0 014 4v6a4 4 0 01-4 4h-1z" fill="none" stroke="white" stroke-width="2"/><circle cx="19" cy="20" r="1.2" fill="white"/></g>
</g>
<g data-slot="5" data-key="execute_sandbox" transform="translate(160 0)">
<title>Sandbox</title>
<rect x="2" y="2" width="28" height="28" rx="8" fill="#c2410c"/>
<path d="M5 4h22a8 8 0 0 1 1 1v10C21 12 12 15 4 25V6a8 8 0 0 1 1-2z" fill="#fb923c" opacity=".92"/>
<g><path d="M16 5l10 5v12l-10 5-10-5V10zM6 10l10 5 10-5M16 15v12" fill="none" stroke="white" stroke-width="2" stroke-linejoin="round"/></g>
</g>
<g data-slot="6" data-key="execute_sudo" transform="translate(192 0)">
<title>Sudo</title>
<rect x="2" y="2" width="28" height="28" rx="8" fill="#991b1b"/>
<path d="M5 4h22a8 8 0 0 1 1 1v10C21 12 12 15 4 25V6a8 8 0 0 1 1-2z" fill="#f87171" opacity=".92"/>
<g><path d="M16 5l10 4v7c0 6-4 10-10 12C10 26 6 22 6 16V9z" fill="none" stroke="white" stroke-width="2" stroke-linejoin="round"/><path d="M12 16l3 3 6-7" fill="none" stroke="white" stroke-width="2" stroke-linecap="round"/></g>
</g>
<g data-slot="7" data-key="execute_skill" transform="translate(224 0)">
<title>Run skill</title>
<rect x="2" y="2" width="28" height="28" rx="8" fill="#0e7490"/>
<path d="M5 4h22a8 8 0 0 1 1 1v10C21 12 12 15 4 25V6a8 8 0 0 1 1-2z" fill="#22d3ee" opacity=".92"/>
<g><circle cx="16" cy="16" r="10" fill="none" stroke="white" stroke-width="2"/><circle cx="16" cy="16" r="5" fill="none" stroke="white" stroke-width="2"/><circle cx="16" cy="16" r="1.8" fill="white"/></g>
</g>
<g data-slot="8" data-key="list_skills" transform="translate(256 0)">
<title>List skills</title>
<rect x="2" y="2" width="28" height="28" rx="8" fill="#0369a1"/>
<path d="M5 4h22a8 8 0 0 1 1 1v10C21 12 12 15 4 25V6a8 8 0 0 1 1-2z" fill="#38bdf8" opacity=".92"/>
<g><path d="M10 10h15M10 16h15M10 22h15" stroke="white" stroke-width="2" stroke-linecap="round"/><circle cx="6.5" cy="10" r="1.3" fill="white"/><circle cx="6.5" cy="16" r="1.3" fill="white"/><circle cx="6.5" cy="22" r="1.3" fill="white"/></g>
</g>
<g data-slot="9" data-key="save_tool" transform="translate(288 0)">
<title>Save tool</title>
<rect x="2" y="2" width="28" height="28" rx="8" fill="#4338ca"/>
<path d="M5 4h22a8 8 0 0 1 1 1v10C21 12 12 15 4 25V6a8 8 0 0 1 1-2z" fill="#818cf8" opacity=".92"/>
<g><path d="M8 7h14l3 3v15H7V7z" fill="none" stroke="white" stroke-width="2" stroke-linejoin="round"/><path d="M11 7v7h10V7M11 25v-6h10v6" stroke="white" stroke-width="2" stroke-linejoin="round"/></g>
</g>
<g data-slot="10" data-key="skill_manager" transform="translate(0 32)">
<title>Skill manager</title>
<rect x="2" y="2" width="28" height="28" rx="8" fill="#0369a1"/>
<path d="M5 4h22a8 8 0 0 1 1 1v10C21 12 12 15 4 25V6a8 8 0 0 1 1-2z" fill="#7dd3fc" opacity=".92"/>
<g><rect x="7" y="7" width="7" height="7" rx="1.5" fill="none" stroke="white" stroke-width="2"/><rect x="18" y="7" width="7" height="7" rx="1.5" fill="none" stroke="white" stroke-width="2"/><rect x="7" y="18" width="7" height="7" rx="1.5" fill="none" stroke="white" stroke-width="2"/><rect x="18" y="18" width="7" height="7" rx="1.5" fill="none" stroke="white" stroke-width="2"/></g>
</g>
<g data-slot="11" data-key="mcp_call" transform="translate(32 32)">
<title>MCP</title>
<rect x="2" y="2" width="28" height="28" rx="8" fill="#7e22ce"/>
<path d="M5 4h22a8 8 0 0 1 1 1v10C21 12 12 15 4 25V6a8 8 0 0 1 1-2z" fill="#c084fc" opacity=".92"/>
<g><path d="M12 18l-2 2a5 5 0 107 7l2-2M20 14l2-2a5 5 0 10-7-7l-2 2M12 20l8-8" fill="none" stroke="white" stroke-width="2" stroke-linecap="round"/></g>
</g>
<g data-slot="12" data-key="ollama" transform="translate(64 32)">
<title>Ollama</title>
<rect x="2" y="2" width="28" height="28" rx="8" fill="#334155"/>
<path d="M5 4h22a8 8 0 0 1 1 1v10C21 12 12 15 4 25V6a8 8 0 0 1 1-2z" fill="#94a3b8" opacity=".92"/>
<g><path d="M11 9a4 4 0 00-4 4 4 4 0 002 7 4 4 0 004 5h6a4 4 0 004-5 4 4 0 002-7 4 4 0 00-6-3 4 4 0 00-8-1z" fill="none" stroke="white" stroke-width="2"/><path d="M16 8v18M11 15h10M12 21h8" stroke="white" stroke-width="1.7" stroke-linecap="round"/></g>
</g>
<g data-slot="13" data-key="filesystem" transform="translate(96 32)">
<title>Filesystem</title>
<rect x="2" y="2" width="28" height="28" rx="8" fill="#a16207"/>
<path d="M5 4h22a8 8 0 0 1 1 1v10C21 12 12 15 4 25V6a8 8 0 0 1 1-2z" fill="#facc15" opacity=".92"/>
<g><path d="M5 12h8l2 3h12v10H5z" fill="none" stroke="white" stroke-width="2" stroke-linejoin="round"/></g>
</g>
<g data-slot="14" data-key="file_reader_advanced" transform="translate(128 32)">
<title>Advanced read</title>
<rect x="2" y="2" width="28" height="28" rx="8" fill="#92400e"/>
<path d="M5 4h22a8 8 0 0 1 1 1v10C21 12 12 15 4 25V6a8 8 0 0 1 1-2z" fill="#fde68a" opacity=".92"/>
<g><path d="M10 6h8l5 5v15H10z" fill="none" stroke="white" stroke-width="2" stroke-linejoin="round"/><path d="M18 6v6h5M13 16h7M13 20h7" fill="none" stroke="white" stroke-width="2" stroke-linecap="round"/></g>
</g>
<g data-slot="15" data-key="smart_file_read" transform="translate(160 32)">
<title>Smart read</title>
<rect x="2" y="2" width="28" height="28" rx="8" fill="#854d0e"/>
<path d="M5 4h22a8 8 0 0 1 1 1v10C21 12 12 15 4 25V6a8 8 0 0 1 1-2z" fill="#fcd34d" opacity=".92"/>
<g><path d="M8 6h9l5 5v6" fill="none" stroke="white" stroke-width="2"/><circle cx="18" cy="20" r="4" fill="none" stroke="white" stroke-width="2"/><path d="M21 23l4 4" stroke="white" stroke-width="2" stroke-linecap="round"/></g>
</g>
<g data-slot="16" data-key="file_search" transform="translate(192 32)">
<title>File search</title>
<rect x="2" y="2" width="28" height="28" rx="8" fill="#78350f"/>
<path d="M5 4h22a8 8 0 0 1 1 1v10C21 12 12 15 4 25V6a8 8 0 0 1 1-2z" fill="#f59e0b" opacity=".92"/>
<g><circle cx="14" cy="14" r="6" fill="none" stroke="white" stroke-width="2"/><path d="M19 19l6 6" stroke="white" stroke-width="2" stroke-linecap="round"/></g>
</g>
<g data-slot="17" data-key="file_editor" transform="translate(224 32)">
<title>File editor</title>
<rect x="2" y="2" width="28" height="28" rx="8" fill="#92400e"/>
<path d="M5 4h22a8 8 0 0 1 1 1v10C21 12 12 15 4 25V6a8 8 0 0 1 1-2z" fill="#fbbf24" opacity=".92"/>
<g><path d="M8 22l2-6L21 5l5 5-11 11-7 1zM19 7l5 5" fill="none" stroke="white" stroke-width="2" stroke-linejoin="round"/></g>
</g>
<g data-slot="18" data-key="detect_file_type" transform="translate(256 32)">
<title>File type</title>
<rect x="2" y="2" width="28" height="28" rx="8" fill="#9a3412"/>
<path d="M5 4h22a8 8 0 0 1 1 1v10C21 12 12 15 4 25V6a8 8 0 0 1 1-2z" fill="#fed7aa" opacity=".92"/>
<g><path d="M7 8h10l8 8-9 9-8-8z" fill="none" stroke="white" stroke-width="2" stroke-linejoin="round"/><circle cx="13" cy="13" r="1.5" fill="white"/></g>
</g>
<g data-slot="19" data-key="archive" transform="translate(288 32)">
<title>Archive</title>
<rect x="2" y="2" width="28" height="28" rx="8" fill="#57534e"/>
<path d="M5 4h22a8 8 0 0 1 1 1v10C21 12 12 15 4 25V6a8 8 0 0 1 1-2z" fill="#d6d3d1" opacity=".92"/>
<g><path d="M16 5l10 5v12l-10 5-10-5V10zM6 10l10 5 10-5M16 15v12" fill="none" stroke="white" stroke-width="2" stroke-linejoin="round"/></g>
</g>
<g data-slot="20" data-key="json_editor" transform="translate(0 64)">
<title>JSON</title>
<rect x="2" y="2" width="28" height="28" rx="8" fill="#075985"/>
<path d="M5 4h22a8 8 0 0 1 1 1v10C21 12 12 15 4 25V6a8 8 0 0 1 1-2z" fill="#38bdf8" opacity=".92"/>
<g><path d="M12 7c-3 0-3 3-3 5v1c0 2-2 3-3 3 1 0 3 1 3 3v1c0 2 0 5 3 5M20 7c3 0 3 3 3 5v1c0 2 2 3 3 3-1 0-3 1-3 3v1c0 2 0 5-3 5" fill="none" stroke="white" stroke-width="2" stroke-linecap="round"/></g>
</g>
<g data-slot="21" data-key="yaml_editor" transform="translate(32 64)">
<title>YAML</title>
<rect x="2" y="2" width="28" height="28" rx="8" fill="#854d0e"/>
<path d="M5 4h22a8 8 0 0 1 1 1v10C21 12 12 15 4 25V6a8 8 0 0 1 1-2z" fill="#fde68a" opacity=".92"/>
<g><path d="M10 10h15M10 16h15M10 22h15" stroke="white" stroke-width="2" stroke-linecap="round"/><circle cx="6.5" cy="10" r="1.3" fill="white"/><circle cx="6.5" cy="16" r="1.3" fill="white"/><circle cx="6.5" cy="22" r="1.3" fill="white"/></g>
</g>
<g data-slot="22" data-key="xml_editor" transform="translate(64 64)">
<title>XML</title>
<rect x="2" y="2" width="28" height="28" rx="8" fill="#1d4ed8"/>
<path d="M5 4h22a8 8 0 0 1 1 1v10C21 12 12 15 4 25V6a8 8 0 0 1 1-2z" fill="#93c5fd" opacity=".92"/>
<g><path d="M12 10l-6 6 6 6M20 10l6 6-6 6M18 7l-4 18" fill="none" stroke="white" stroke-width="2" stroke-linecap="round" stroke-linejoin="round"/></g>
</g>
<g data-slot="23" data-key="toml_editor" transform="translate(96 64)">
<title>TOML</title>
<rect x="2" y="2" width="28" height="28" rx="8" fill="#6d28d9"/>
<path d="M5 4h22a8 8 0 0 1 1 1v10C21 12 12 15 4 25V6a8 8 0 0 1 1-2z" fill="#c4b5fd" opacity=".92"/>
<g><path d="M8 9h16M8 16h16M8 23h16" stroke="white" stroke-width="2" stroke-linecap="round"/><circle cx="13" cy="9" r="2.5" fill="none" stroke="white" stroke-width="2"/><circle cx="20" cy="16" r="2.5" fill="none" stroke="white" stroke-width="2"/><circle cx="11" cy="23" r="2.5" fill="none" stroke="white" stroke-width="2"/></g>
</g>
<g data-slot="24" data-key="text_diff" transform="translate(128 64)">
<title>Diff</title>
<rect x="2" y="2" width="28" height="28" rx="8" fill="#b91c1c"/>
<path d="M5 4h22a8 8 0 0 1 1 1v10C21 12 12 15 4 25V6a8 8 0 0 1 1-2z" fill="#fca5a5" opacity=".92"/>
<g><path d="M9 11h8M13 7v8M17 21h8" stroke="white" stroke-width="2.4" stroke-linecap="round"/></g>
</g>
<g data-slot="25" data-key="code_analysis" transform="translate(160 64)">
<title>Code analysis</title>
<rect x="2" y="2" width="28" height="28" rx="8" fill="#15803d"/>
<path d="M5 4h22a8 8 0 0 1 1 1v10C21 12 12 15 4 25V6a8 8 0 0 1 1-2z" fill="#86efac" opacity=".92"/>
<g><circle cx="14" cy="14" r="6" fill="none" stroke="white" stroke-width="2"/><path d="M19 19l6 6" stroke="white" stroke-width="2" stroke-linecap="round"/></g>
</g>
<g data-slot="26" data-key="golangci_lint" transform="translate(192 64)">
<title>Go lint</title>
<rect x="2" y="2" width="28" height="28" rx="8" fill="#0e7490"/>
<path d="M5 4h22a8 8 0 0 1 1 1v10C21 12 12 15 4 25V6a8 8 0 0 1 1-2z" fill="#67e8f9" opacity=".92"/>
<g><path d="M8 18c2-6 10-8 16-4M6 22h13M5 15h9" fill="none" stroke="white" stroke-width="2.2" stroke-linecap="round"/></g>
</g>
<g data-slot="27" data-key="system_metrics" transform="translate(224 64)">
<title>System metrics</title>
<rect x="2" y="2" width="28" height="28" rx="8" fill="#0f766e"/>
<path d="M5 4h22a8 8 0 0 1 1 1v10C21 12 12 15 4 25V6a8 8 0 0 1 1-2z" fill="#5eead4" opacity=".92"/>
<g><path d="M7 24V8M7 24h18" stroke="white" stroke-width="2" stroke-linecap="round"/><path d="M11 20v-6M16 20v-10M21 20v-8" stroke="white" stroke-width="3" stroke-linecap="round"/></g>
</g>
<g data-slot="28" data-key="process_management" transform="translate(256 64)">
<title>Processes</title>
<rect x="2" y="2" width="28" height="28" rx="8" fill="#475569"/>
<path d="M5 4h22a8 8 0 0 1 1 1v10C21 12 12 15 4 25V6a8 8 0 0 1 1-2z" fill="#cbd5e1" opacity=".92"/>
<g><circle cx="16" cy="16" r="4" fill="none" stroke="white" stroke-width="2"/><path d="M16 5v4M16 23v4M5 16h4M23 16h4M8 8l3 3M21 21l3 3M24 8l-3 3M11 21l-3 3" stroke="white" stroke-width="2" stroke-linecap="round"/></g>
</g>
<g data-slot="29" data-key="service_manager" transform="translate(288 64)">
<title>Services</title>
<rect x="2" y="2" width="28" height="28" rx="8" fill="#1e40af"/>
<path d="M5 4h22a8 8 0 0 1 1 1v10C21 12 12 15 4 25V6a8 8 0 0 1 1-2z" fill="#93c5fd" opacity=".92"/>
<g><path d="M21 7l4 4-5 5-4-4zM8 24l8-8M7 12a5 5 0 006 6l-4 4a5 5 0 01-6-6z" fill="none" stroke="white" stroke-width="2" stroke-linejoin="round"/></g>
</g>
<g data-slot="30" data-key="network_ping" transform="translate(0 96)">
<title>Ping</title>
<rect x="2" y="2" width="28" height="28" rx="8" fill="#166534"/>
<path d="M5 4h22a8 8 0 0 1 1 1v10C21 12 12 15 4 25V6a8 8 0 0 1 1-2z" fill="#86efac" opacity=".92"/>
<g><path d="M5 17h6l2-5 4 10 3-6h7" fill="none" stroke="white" stroke-width="2" stroke-linecap="round" stroke-linejoin="round"/></g>
</g>
<g data-slot="31" data-key="port_scanner" transform="translate(32 96)">
<title>Ports</title>
<rect x="2" y="2" width="28" height="28" rx="8" fill="#0f766e"/>
<path d="M5 4h22a8 8 0 0 1 1 1v10C21 12 12 15 4 25V6a8 8 0 0 1 1-2z" fill="#2dd4bf" opacity=".92"/>
<g><path d="M9 8h14v8H9zM12 16v8M20 16v8M8 24h6M18 24h6" fill="none" stroke="white" stroke-width="2" stroke-linecap="round" stroke-linejoin="round"/></g>
</g>
<g data-slot="32" data-key="dns_lookup" transform="translate(64 96)">
<title>DNS</title>
<rect x="2" y="2" width="28" height="28" rx="8" fill="#1d4ed8"/>
<path d="M5 4h22a8 8 0 0 1 1 1v10C21 12 12 15 4 25V6a8 8 0 0 1 1-2z" fill="#60a5fa" opacity=".92"/>
<g><circle cx="16" cy="16" r="10" fill="none" stroke="white" stroke-width="2"/><path d="M6 16h20M16 6c3 3 3 17 0 20M16 6c-3 3-3 17 0 20" fill="none" stroke="white" stroke-width="1.8"/></g>
</g>
<g data-slot="33" data-key="follow_up" transform="translate(96 96)">
<title>Follow-up</title>
<rect x="2" y="2" width="28" height="28" rx="8" fill="#92400e"/>
<path d="M5 4h22a8 8 0 0 1 1 1v10C21 12 12 15 4 25V6a8 8 0 0 1 1-2z" fill="#fbbf24" opacity=".92"/>
<g><rect x="7" y="9" width="18" height="16" rx="2" fill="none" stroke="white" stroke-width="2"/><path d="M11 6v5M21 6v5M7 14h18" stroke="white" stroke-width="2" stroke-linecap="round"/></g>
</g>
<g data-slot="34" data-key="upnp_scan" transform="translate(128 96)">
<title>UPnP</title>
<rect x="2" y="2" width="28" height="28" rx="8" fill="#0f766e"/>
<path d="M5 4h22a8 8 0 0 1 1 1v10C21 12 12 15 4 25V6a8 8 0 0 1 1-2z" fill="#5eead4" opacity=".92"/>
<g><path d="M5 17h6l2-5 4 10 3-6h7" fill="none" stroke="white" stroke-width="2" stroke-linecap="round" stroke-linejoin="round"/></g>
</g>
<g data-slot="35" data-key="certificate_manager" transform="translate(160 96)">
<title>Certificates</title>
<rect x="2" y="2" width="28" height="28" rx="8" fill="#854d0e"/>
<path d="M5 4h22a8 8 0 0 1 1 1v10C21 12 12 15 4 25V6a8 8 0 0 1 1-2z" fill="#eab308" opacity=".92"/>
<g><path d="M9 6h14v18H9zM12 11h8M12 15h8" fill="none" stroke="white" stroke-width="2" stroke-linecap="round"/><circle cx="16" cy="21" r="3" fill="none" stroke="white" stroke-width="2"/><path d="M14 24l-1 4 3-2 3 2-1-4" fill="none" stroke="white" stroke-width="2" stroke-linejoin="round"/></g>
</g>
<g data-slot="36" data-key="firewall" transform="translate(192 96)">
<title>Firewall</title>
<rect x="2" y="2" width="28" height="28" rx="8" fill="#991b1b"/>
<path d="M5 4h22a8 8 0 0 1 1 1v10C21 12 12 15 4 25V6a8 8 0 0 1 1-2z" fill="#f87171" opacity=".92"/>
<g><path d="M6 10h20v14H6zM6 15h20M6 20h20M12 10v5M20 10v5M16 15v5M10 20v4M22 20v4" fill="none" stroke="white" stroke-width="2"/></g>
</g>
<g data-slot="37" data-key="wake_on_lan" transform="translate(224 96)">
<title>Wake on LAN</title>
<rect x="2" y="2" width="28" height="28" rx="8" fill="#a16207"/>
<path d="M5 4h22a8 8 0 0 1 1 1v10C21 12 12 15 4 25V6a8 8 0 0 1 1-2z" fill="#fde047" opacity=".92"/>
<g><path d="M18 4L8 17h7l-1 11 10-15h-7z" fill="white"/></g>
</g>
<g data-slot="38" data-key="remote_execution" transform="translate(256 96)">
<title>Remote exec</title>
<rect x="2" y="2" width="28" height="28" rx="8" fill="#1d4ed8"/>
<path d="M5 4h22a8 8 0 0 1 1 1v10C21 12 12 15 4 25V6a8 8 0 0 1 1-2z" fill="#93c5fd" opacity=".92"/>
<g><rect x="6" y="9" width="15" height="12" rx="2" fill="none" stroke="white" stroke-width="2"/><path d="M14 25h7M17 21v4M21 13h6M24 10l3 3-3 3" fill="none" stroke="white" stroke-width="2" stroke-linecap="round" stroke-linejoin="round"/></g>
</g>
<g data-slot="39" data-key="remote_control" transform="translate(288 96)">
<title>Remote control</title>
<rect x="2" y="2" width="28" height="28" rx="8" fill="#6d28d9"/>
<path d="M5 4h22a8 8 0 0 1 1 1v10C21 12 12 15 4 25V6a8 8 0 0 1 1-2z" fill="#a78bfa" opacity=".92"/>
<g><path d="M10 14h12a5 5 0 014 4l1 5a3 3 0 01-5 2l-3-3h-6l-3 3a3 3 0 01-5-2l1-5a5 5 0 014-4zM11 18h5M13.5 15.5v5M22 17h.1M24 20h.1" fill="none" stroke="white" stroke-width="2" stroke-linecap="round"/></g>
</g>
<g data-slot="40" data-key="ssh_key_manager" transform="translate(0 128)">
<title>SSH keys</title>
<rect x="2" y="2" width="28" height="28" rx="8" fill="#334155"/>
<path d="M5 4h22a8 8 0 0 1 1 1v10C21 12 12 15 4 25V6a8 8 0 0 1 1-2z" fill="#cbd5e1" opacity=".92"/>
<g><rect x="8" y="14" width="16" height="12" rx="2" fill="none" stroke="white" stroke-width="2"/><path d="M11 14v-3a5 5 0 0110 0v3" fill="none" stroke="white" stroke-width="2"/><circle cx="16" cy="20" r="1.5" fill="white"/></g>
</g>
<g data-slot="41" data-key="ansible" transform="translate(32 128)">
<title>Ansible</title>
<rect x="2" y="2" width="28" height="28" rx="8" fill="#991b1b"/>
<path d="M5 4h22a8 8 0 0 1 1 1v10C21 12 12 15 4 25V6a8 8 0 0 1 1-2z" fill="#ef4444" opacity=".92"/>
<g><circle cx="8" cy="10" r="3" fill="none" stroke="white" stroke-width="2"/><circle cx="24" cy="10" r="3" fill="none" stroke="white" stroke-width="2"/><circle cx="16" cy="24" r="3" fill="none" stroke="white" stroke-width="2"/><path d="M11 11h10M10 13l4 8M22 13l-4 8" stroke="white" stroke-width="2"/></g>
</g>
<g data-slot="42" data-key="docker" transform="translate(64 128)">
<title>Docker</title>
<rect x="2" y="2" width="28" height="28" rx="8" fill="#075985"/>
<path d="M5 4h22a8 8 0 0 1 1 1v10C21 12 12 15 4 25V6a8 8 0 0 1 1-2z" fill="#38bdf8" opacity=".92"/>
<g><path d="M16 5l10 5v12l-10 5-10-5V10zM6 10l10 5 10-5M16 15v12" fill="none" stroke="white" stroke-width="2" stroke-linejoin="round"/></g>
</g>
<g data-slot="43" data-key="proxmox" transform="translate(96 128)">
<title>Proxmox</title>
<rect x="2" y="2" width="28" height="28" rx="8" fill="#9a3412"/>
<path d="M5 4h22a8 8 0 0 1 1 1v10C21 12 12 15 4 25V6a8 8 0 0 1 1-2z" fill="#fb923c" opacity=".92"/>
<g><rect x="7" y="7" width="18" height="7" rx="2" fill="none" stroke="white" stroke-width="2"/><rect x="7" y="18" width="18" height="7" rx="2" fill="none" stroke="white" stroke-width="2"/><circle cx="11" cy="10.5" r="1" fill="white"/><circle cx="11" cy="21.5" r="1" fill="white"/></g>
</g>
<g data-slot="44" data-key="truenas" transform="translate(128 128)">
<title>TrueNAS</title>
<rect x="2" y="2" width="28" height="28" rx="8" fill="#075985"/>
<path d="M5 4h22a8 8 0 0 1 1 1v10C21 12 12 15 4 25V6a8 8 0 0 1 1-2z" fill="#38bdf8" opacity=".92"/>
<g><rect x="7" y="7" width="18" height="7" rx="2" fill="none" stroke="white" stroke-width="2"/><rect x="7" y="18" width="18" height="7" rx="2" fill="none" stroke="white" stroke-width="2"/><circle cx="11" cy="10.5" r="1" fill="white"/><circle cx="11" cy="21.5" r="1" fill="white"/></g>
</g>
<g data-slot="45" data-key="home_assistant" transform="translate(160 128)">
<title>Home Assistant</title>
<rect x="2" y="2" width="28" height="28" rx="8" fill="#1d4ed8"/>
<path d="M5 4h22a8 8 0 0 1 1 1v10C21 12 12 15 4 25V6a8 8 0 0 1 1-2z" fill="#60a5fa" opacity=".92"/>
<g><path d="M5 15l11-9 11 9M9 14v12h14V14" fill="none" stroke="white" stroke-width="2" stroke-linecap="round" stroke-linejoin="round"/><path d="M13 26v-7h6v7" fill="none" stroke="white" stroke-width="2"/></g>
</g>
<g data-slot="46" data-key="fritzbox_network" transform="translate(192 128)">
<title>Fritz network</title>
<rect x="2" y="2" width="28" height="28" rx="8" fill="#991b1b"/>
<path d="M5 4h22a8 8 0 0 1 1 1v10C21 12 12 15 4 25V6a8 8 0 0 1 1-2z" fill="#ef4444" opacity=".92"/>
<g><path d="M5 15l11-9 11 9M9 14v12h14V14" fill="none" stroke="white" stroke-width="2" stroke-linecap="round" stroke-linejoin="round"/><path d="M13 26v-7h6v7" fill="none" stroke="white" stroke-width="2"/></g>
</g>
<g data-slot="47" data-key="fritzbox_smarthome" transform="translate(224 128)">
<title>Fritz smart home</title>
<rect x="2" y="2" width="28" height="28" rx="8" fill="#9a3412"/>
<path d="M5 4h22a8 8 0 0 1 1 1v10C21 12 12 15 4 25V6a8 8 0 0 1 1-2z" fill="#f97316" opacity=".92"/>
<g><path d="M5 15l11-9 11 9M9 14v12h14V14" fill="none" stroke="white" stroke-width="2" stroke-linecap="round" stroke-linejoin="round"/><path d="M13 26v-7h6v7" fill="none" stroke="white" stroke-width="2"/></g>
</g>
<g data-slot="48" data-key="fritzbox_telephony" transform="translate(256 128)">
<title>Fritz telephony</title>
<rect x="2" y="2" width="28" height="28" rx="8" fill="#be123c"/>
<path d="M5 4h22a8 8 0 0 1 1 1v10C21 12 12 15 4 25V6a8 8 0 0 1 1-2z" fill="#fb7185" opacity=".92"/>
<g><path d="M11 6h10a2 2 0 012 2v16a2 2 0 01-2 2H11a2 2 0 01-2-2V8a2 2 0 012-2zM14 22h4" fill="none" stroke="white" stroke-width="2" stroke-linecap="round"/></g>
</g>
<g data-slot="49" data-key="meshcentral" transform="translate(288 128)">
<title>MeshCentral</title>
<rect x="2" y="2" width="28" height="28" rx="8" fill="#7e22ce"/>
<path d="M5 4h22a8 8 0 0 1 1 1v10C21 12 12 15 4 25V6a8 8 0 0 1 1-2z" fill="#c084fc" opacity=".92"/>
<g><circle cx="8" cy="10" r="3" fill="none" stroke="white" stroke-width="2"/><circle cx="24" cy="10" r="3" fill="none" stroke="white" stroke-width="2"/><circle cx="16" cy="24" r="3" fill="none" stroke="white" stroke-width="2"/><path d="M11 11h10M10 13l4 8M22 13l-4 8" stroke="white" stroke-width="2"/></g>
</g>
<g data-slot="50" data-key="tailscale" transform="translate(0 160)">
<title>Tailscale</title>
<rect x="2" y="2" width="28" height="28" rx="8" fill="#334155"/>
<path d="M5 4h22a8 8 0 0 1 1 1v10C21 12 12 15 4 25V6a8 8 0 0 1 1-2z" fill="#94a3b8" opacity=".92"/>
<g><circle cx="8" cy="10" r="3" fill="none" stroke="white" stroke-width="2"/><circle cx="24" cy="10" r="3" fill="none" stroke="white" stroke-width="2"/><circle cx="16" cy="24" r="3" fill="none" stroke="white" stroke-width="2"/><path d="M11 11h10M10 13l4 8M22 13l-4 8" stroke="white" stroke-width="2"/></g>
</g>
<g data-slot="51" data-key="cloudflare_tunnel" transform="translate(32 160)">
<title>Cloudflare tunnel</title>
<rect x="2" y="2" width="28" height="28" rx="8" fill="#9a3412"/>
<path d="M5 4h22a8 8 0 0 1 1 1v10C21 12 12 15 4 25V6a8 8 0 0 1 1-2z" fill="#f97316" opacity=".92"/>
<g><path d="M10 22h13a5 5 0 00.4-10 7 7 0 00-13.2 1.8A4.2 4.2 0 0010 22z" fill="none" stroke="white" stroke-width="2" stroke-linejoin="round"/></g>
</g>
<g data-slot="52" data-key="adguard" transform="translate(64 160)">
<title>AdGuard</title>
<rect x="2" y="2" width="28" height="28" rx="8" fill="#15803d"/>
<path d="M5 4h22a8 8 0 0 1 1 1v10C21 12 12 15 4 25V6a8 8 0 0 1 1-2z" fill="#4ade80" opacity=".92"/>
<g><path d="M16 5l10 4v7c0 6-4 10-10 12C10 26 6 22 6 16V9z" fill="none" stroke="white" stroke-width="2" stroke-linejoin="round"/><path d="M12 16l3 3 6-7" fill="none" stroke="white" stroke-width="2" stroke-linecap="round"/></g>
</g>
<g data-slot="53" data-key="uptime_kuma" transform="translate(96 160)">
<title>Uptime Kuma</title>
<rect x="2" y="2" width="28" height="28" rx="8" fill="#166534"/>
<path d="M5 4h22a8 8 0 0 1 1 1v10C21 12 12 15 4 25V6a8 8 0 0 1 1-2z" fill="#86efac" opacity=".92"/>
<g><path d="M5 17h6l2-5 4 10 3-6h7" fill="none" stroke="white" stroke-width="2" stroke-linecap="round" stroke-linejoin="round"/></g>
</g>
<g data-slot="54" data-key="site_monitor" transform="translate(128 160)">
<title>Site monitor</title>
<rect x="2" y="2" width="28" height="28" rx="8" fill="#075985"/>
<path d="M5 4h22a8 8 0 0 1 1 1v10C21 12 12 15 4 25V6a8 8 0 0 1 1-2z" fill="#38bdf8" opacity=".92"/>
<g><rect x="6" y="8" width="20" height="14" rx="2" fill="none" stroke="white" stroke-width="2"/><path d="M6 13h20M13 26h6M16 22v4" stroke="white" stroke-width="2" stroke-linecap="round"/></g>
</g>
<g data-slot="55" data-key="web_scraper" transform="translate(160 160)">
<title>Web scraper</title>
<rect x="2" y="2" width="28" height="28" rx="8" fill="#a16207"/>
<path d="M5 4h22a8 8 0 0 1 1 1v10C21 12 12 15 4 25V6a8 8 0 0 1 1-2z" fill="#facc15" opacity=".92"/>
<g><path d="M8 8h16v7H8zM10 15l-2 10M16 15v10M22 15l2 10" fill="none" stroke="white" stroke-width="2" stroke-linecap="round" stroke-linejoin="round"/></g>
</g>
<g data-slot="56" data-key="web_capture" transform="translate(192 160)">
<title>Web capture</title>
<rect x="2" y="2" width="28" height="28" rx="8" fill="#1d4ed8"/>
<path d="M5 4h22a8 8 0 0 1 1 1v10C21 12 12 15 4 25V6a8 8 0 0 1 1-2z" fill="#60a5fa" opacity=".92"/>
<g><text x="16" y="22.2" text-anchor="middle" font-family="Inter, Arial, sans-serif" font-size="8.4" font-weight="800" fill="white">WC</text></g>
</g>
<g data-slot="57" data-key="web_performance_audit" transform="translate(224 160)">
<title>Performance</title>
<rect x="2" y="2" width="28" height="28" rx="8" fill="#047857"/>
<path d="M5 4h22a8 8 0 0 1 1 1v10C21 12 12 15 4 25V6a8 8 0 0 1 1-2z" fill="#34d399" opacity=".92"/>
<g><path d="M7 24V8M7 24h18" stroke="white" stroke-width="2" stroke-linecap="round"/><path d="M11 20v-6M16 20v-10M21 20v-8" stroke="white" stroke-width="3" stroke-linecap="round"/></g>
</g>
<g data-slot="58" data-key="browser_automation" transform="translate(256 160)">
<title>Browser</title>
<rect x="2" y="2" width="28" height="28" rx="8" fill="#075985"/>
<path d="M5 4h22a8 8 0 0 1 1 1v10C21 12 12 15 4 25V6a8 8 0 0 1 1-2z" fill="#38bdf8" opacity=".92"/>
<g><rect x="6" y="8" width="20" height="14" rx="2" fill="none" stroke="white" stroke-width="2"/><path d="M6 13h20M13 26h6M16 22v4" stroke="white" stroke-width="2" stroke-linecap="round"/></g>
</g>
<g data-slot="59" data-key="api_request" transform="translate(288 160)">
<title>API request</title>
<rect x="2" y="2" width="28" height="28" rx="8" fill="#0e7490"/>
<path d="M5 4h22a8 8 0 0 1 1 1v10C21 12 12 15 4 25V6a8 8 0 0 1 1-2z" fill="#22d3ee" opacity=".92"/>
<g><path d="M12 18l-2 2a5 5 0 107 7l2-2M20 14l2-2a5 5 0 10-7-7l-2 2M12 20l8-8" fill="none" stroke="white" stroke-width="2" stroke-linecap="round"/></g>
</g>
<g data-slot="60" data-key="brave_search" transform="translate(0 192)">
<title>Search</title>
<rect x="2" y="2" width="28" height="28" rx="8" fill="#9a3412"/>
<path d="M5 4h22a8 8 0 0 1 1 1v10C21 12 12 15 4 25V6a8 8 0 0 1 1-2z" fill="#fb923c" opacity=".92"/>
<g><circle cx="14" cy="14" r="6" fill="none" stroke="white" stroke-width="2"/><path d="M19 19l6 6" stroke="white" stroke-width="2" stroke-linecap="round"/></g>
</g>
<g data-slot="61" data-key="wikipedia_search" transform="translate(32 192)">
<title>Wikipedia</title>
<rect x="2" y="2" width="28" height="28" rx="8" fill="#44403c"/>
<path d="M5 4h22a8 8 0 0 1 1 1v10C21 12 12 15 4 25V6a8 8 0 0 1 1-2z" fill="#d6d3d1" opacity=".92"/>
<g><text x="16" y="22.2" text-anchor="middle" font-family="Inter, Arial, sans-serif" font-size="8.4" font-weight="800" fill="white">WK</text></g>
</g>
<g data-slot="62" data-key="github" transform="translate(64 192)">
<title>GitHub</title>
<rect x="2" y="2" width="28" height="28" rx="8" fill="#334155"/>
<path d="M5 4h22a8 8 0 0 1 1 1v10C21 12 12 15 4 25V6a8 8 0 0 1 1-2z" fill="#cbd5e1" opacity=".92"/>
<g><circle cx="8" cy="10" r="3" fill="none" stroke="white" stroke-width="2"/><circle cx="24" cy="10" r="3" fill="none" stroke="white" stroke-width="2"/><circle cx="16" cy="24" r="3" fill="none" stroke="white" stroke-width="2"/><path d="M11 11h10M10 13l4 8M22 13l-4 8" stroke="white" stroke-width="2"/></g>
</g>
<g data-slot="63" data-key="netlify" transform="translate(96 192)">
<title>Netlify</title>
<rect x="2" y="2" width="28" height="28" rx="8" fill="#0f766e"/>
<path d="M5 4h22a8 8 0 0 1 1 1v10C21 12 12 15 4 25V6a8 8 0 0 1 1-2z" fill="#2dd4bf" opacity=".92"/>
<g><path d="M16 5c5 4 6 10 3 16l-3 6-3-6c-3-6-2-12 3-16zM12 19l-5 4M20 19l5 4" fill="none" stroke="white" stroke-width="2" stroke-linejoin="round"/><circle cx="16" cy="12" r="2" fill="white"/></g>
</g>
<g data-slot="64" data-key="vercel" transform="translate(128 192)">
<title>Vercel</title>
<rect x="2" y="2" width="28" height="28" rx="8" fill="#111827"/>
<path d="M5 4h22a8 8 0 0 1 1 1v10C21 12 12 15 4 25V6a8 8 0 0 1 1-2z" fill="#e5e7eb" opacity=".92"/>
<g><path d="M16 6l11 20H5z" fill="none" stroke="white" stroke-width="2" stroke-linejoin="round"/></g>
</g>
<g data-slot="65" data-key="s3_storage" transform="translate(160 192)">
<title>S3 storage</title>
<rect x="2" y="2" width="28" height="28" rx="8" fill="#92400e"/>
<path d="M5 4h22a8 8 0 0 1 1 1v10C21 12 12 15 4 25V6a8 8 0 0 1 1-2z" fill="#fbbf24" opacity=".92"/>
<g><path d="M16 5l10 5v12l-10 5-10-5V10zM6 10l10 5 10-5M16 15v12" fill="none" stroke="white" stroke-width="2" stroke-linejoin="round"/></g>
</g>
<g data-slot="66" data-key="webdav" transform="translate(192 192)">
<title>WebDAV</title>
<rect x="2" y="2" width="28" height="28" rx="8" fill="#1d4ed8"/>
<path d="M5 4h22a8 8 0 0 1 1 1v10C21 12 12 15 4 25V6a8 8 0 0 1 1-2z" fill="#93c5fd" opacity=".92"/>
<g><path d="M10 22h13a5 5 0 00.4-10 7 7 0 00-13.2 1.8A4.2 4.2 0 0010 22z" fill="none" stroke="white" stroke-width="2" stroke-linejoin="round"/></g>
</g>
<g data-slot="67" data-key="koofr" transform="translate(224 192)">
<title>Koofr</title>
<rect x="2" y="2" width="28" height="28" rx="8" fill="#0e7490"/>
<path d="M5 4h22a8 8 0 0 1 1 1v10C21 12 12 15 4 25V6a8 8 0 0 1 1-2z" fill="#67e8f9" opacity=".92"/>
<g><path d="M10 22h13a5 5 0 00.4-10 7 7 0 00-13.2 1.8A4.2 4.2 0 0010 22z" fill="none" stroke="white" stroke-width="2" stroke-linejoin="round"/></g>
</g>
<g data-slot="68" data-key="onedrive" transform="translate(256 192)">
<title>OneDrive</title>
<rect x="2" y="2" width="28" height="28" rx="8" fill="#1d4ed8"/>
<path d="M5 4h22a8 8 0 0 1 1 1v10C21 12 12 15 4 25V6a8 8 0 0 1 1-2z" fill="#60a5fa" opacity=".92"/>
<g><path d="M10 22h13a5 5 0 00.4-10 7 7 0 00-13.2 1.8A4.2 4.2 0 0010 22z" fill="none" stroke="white" stroke-width="2" stroke-linejoin="round"/></g>
</g>
<g data-slot="69" data-key="google_workspace" transform="translate(288 192)">
<title>Google Workspace</title>
<rect x="2" y="2" width="28" height="28" rx="8" fill="#1d4ed8"/>
<path d="M5 4h22a8 8 0 0 1 1 1v10C21 12 12 15 4 25V6a8 8 0 0 1 1-2z" fill="#fbbf24" opacity=".92"/>
<g><rect x="7" y="7" width="7" height="7" rx="1.5" fill="none" stroke="white" stroke-width="2"/><rect x="18" y="7" width="7" height="7" rx="1.5" fill="none" stroke="white" stroke-width="2"/><rect x="7" y="18" width="7" height="7" rx="1.5" fill="none" stroke="white" stroke-width="2"/><rect x="18" y="18" width="7" height="7" rx="1.5" fill="none" stroke="white" stroke-width="2"/></g>
</g>
<g data-slot="70" data-key="email" transform="translate(0 224)">
<title>Email</title>
<rect x="2" y="2" width="28" height="28" rx="8" fill="#1d4ed8"/>
<path d="M5 4h22a8 8 0 0 1 1 1v10C21 12 12 15 4 25V6a8 8 0 0 1 1-2z" fill="#93c5fd" opacity=".92"/>
<g><rect x="6" y="9" width="20" height="14" rx="2" fill="none" stroke="white" stroke-width="2"/><path d="M7 11l9 7 9-7" fill="none" stroke="white" stroke-width="2" stroke-linejoin="round"/></g>
</g>
<g data-slot="71" data-key="discord" transform="translate(32 224)">
<title>Discord</title>
<rect x="2" y="2" width="28" height="28" rx="8" fill="#4338ca"/>
<path d="M5 4h22a8 8 0 0 1 1 1v10C21 12 12 15 4 25V6a8 8 0 0 1 1-2z" fill="#818cf8" opacity=".92"/>
<g><text x="16" y="22.2" text-anchor="middle" font-family="Inter, Arial, sans-serif" font-size="8.4" font-weight="800" fill="white">DC</text></g>
</g>
<g data-slot="72" data-key="mqtt" transform="translate(64 224)">
<title>MQTT</title>
<rect x="2" y="2" width="28" height="28" rx="8" fill="#047857"/>
<path d="M5 4h22a8 8 0 0 1 1 1v10C21 12 12 15 4 25V6a8 8 0 0 1 1-2z" fill="#34d399" opacity=".92"/>
<g><path d="M7 9h18v13H7z" fill="none" stroke="white" stroke-width="2"/><path d="M7 23a5 5 0 015 5M7 18a10 10 0 0110 10" fill="none" stroke="white" stroke-width="2" stroke-linecap="round"/></g>
</g>
<g data-slot="73" data-key="telnyx" transform="translate(96 224)">
<title>Telnyx</title>
<rect x="2" y="2" width="28" height="28" rx="8" fill="#075985"/>
<path d="M5 4h22a8 8 0 0 1 1 1v10C21 12 12 15 4 25V6a8 8 0 0 1 1-2z" fill="#38bdf8" opacity=".92"/>
<g><path d="M11 6h10a2 2 0 012 2v16a2 2 0 01-2 2H11a2 2 0 01-2-2V8a2 2 0 012-2zM14 22h4" fill="none" stroke="white" stroke-width="2" stroke-linecap="round"/></g>
</g>
<g data-slot="74" data-key="send_notification" transform="translate(128 224)">
<title>Notification</title>
<rect x="2" y="2" width="28" height="28" rx="8" fill="#a16207"/>
<path d="M5 4h22a8 8 0 0 1 1 1v10C21 12 12 15 4 25V6a8 8 0 0 1 1-2z" fill="#facc15" opacity=".92"/>
<g><path d="M10 22h12l-2-3v-5a4 4 0 00-8 0v5zM14 25a2 2 0 004 0" fill="none" stroke="white" stroke-width="2" stroke-linejoin="round"/></g>
</g>
<g data-slot="75" data-key="chromecast" transform="translate(160 224)">
<title>Chromecast</title>
<rect x="2" y="2" width="28" height="28" rx="8" fill="#1d4ed8"/>
<path d="M5 4h22a8 8 0 0 1 1 1v10C21 12 12 15 4 25V6a8 8 0 0 1 1-2z" fill="#60a5fa" opacity=".92"/>
<g><path d="M7 9h18v13H7z" fill="none" stroke="white" stroke-width="2"/><path d="M7 23a5 5 0 015 5M7 18a10 10 0 0110 10" fill="none" stroke="white" stroke-width="2" stroke-linecap="round"/></g>
</g>
<g data-slot="76" data-key="jellyfin" transform="translate(192 224)">
<title>Jellyfin</title>
<rect x="2" y="2" width="28" height="28" rx="8" fill="#6d28d9"/>
<path d="M5 4h22a8 8 0 0 1 1 1v10C21 12 12 15 4 25V6a8 8 0 0 1 1-2z" fill="#a78bfa" opacity=".92"/>
<g><circle cx="16" cy="16" r="10" fill="none" stroke="white" stroke-width="2"/><path d="M13 11l9 5-9 5z" fill="white"/></g>
</g>
<g data-slot="77" data-key="media_registry" transform="translate(224 224)">
<title>Media registry</title>
<rect x="2" y="2" width="28" height="28" rx="8" fill="#be123c"/>
<path d="M5 4h22a8 8 0 0 1 1 1v10C21 12 12 15 4 25V6a8 8 0 0 1 1-2z" fill="#fb7185" opacity=".92"/>
<g><text x="16" y="22.2" text-anchor="middle" font-family="Inter, Arial, sans-serif" font-size="8.4" font-weight="800" fill="white">MR</text></g>
</g>
<g data-slot="78" data-key="media_conversion" transform="translate(256 224)">
<title>Media conversion</title>
<rect x="2" y="2" width="28" height="28" rx="8" fill="#9a3412"/>
<path d="M5 4h22a8 8 0 0 1 1 1v10C21 12 12 15 4 25V6a8 8 0 0 1 1-2z" fill="#f97316" opacity=".92"/>
<g><path d="M9 12h13l-4-4M23 20H10l4 4" fill="none" stroke="white" stroke-width="2" stroke-linecap="round" stroke-linejoin="round"/></g>
</g>
<g data-slot="79" data-key="send_image" transform="translate(288 224)">
<title>Send image</title>
<rect x="2" y="2" width="28" height="28" rx="8" fill="#075985"/>
<path d="M5 4h22a8 8 0 0 1 1 1v10C21 12 12 15 4 25V6a8 8 0 0 1 1-2z" fill="#38bdf8" opacity=".92"/>
<g><rect x="6" y="8" width="20" height="16" rx="2" fill="none" stroke="white" stroke-width="2"/><circle cx="12" cy="13" r="2" fill="white"/><path d="M8 22l6-6 4 4 3-3 4 5" fill="none" stroke="white" stroke-width="2" stroke-linejoin="round"/></g>
</g>
<g data-slot="80" data-key="send_video" transform="translate(0 256)">
<title>Send video</title>
<rect x="2" y="2" width="28" height="28" rx="8" fill="#6d28d9"/>
<path d="M5 4h22a8 8 0 0 1 1 1v10C21 12 12 15 4 25V6a8 8 0 0 1 1-2z" fill="#a78bfa" opacity=".92"/>
<g><rect x="6" y="9" width="15" height="14" rx="2" fill="none" stroke="white" stroke-width="2"/><path d="M21 14l6-4v12l-6-4z" fill="none" stroke="white" stroke-width="2" stroke-linejoin="round"/></g>
</g>
<g data-slot="81" data-key="send_audio" transform="translate(32 256)">
<title>Send audio</title>
<rect x="2" y="2" width="28" height="28" rx="8" fill="#047857"/>
<path d="M5 4h22a8 8 0 0 1 1 1v10C21 12 12 15 4 25V6a8 8 0 0 1 1-2z" fill="#34d399" opacity=".92"/>
<g><rect x="12" y="5" width="8" height="14" rx="4" fill="none" stroke="white" stroke-width="2"/><path d="M8 15a8 8 0 0016 0M16 23v4M12 27h8" stroke="white" stroke-width="2" stroke-linecap="round"/></g>
</g>
<g data-slot="82" data-key="send_document" transform="translate(64 256)">
<title>Send document</title>
<rect x="2" y="2" width="28" height="28" rx="8" fill="#92400e"/>
<path d="M5 4h22a8 8 0 0 1 1 1v10C21 12 12 15 4 25V6a8 8 0 0 1 1-2z" fill="#fbbf24" opacity=".92"/>
<g><path d="M10 6h8l5 5v15H10z" fill="none" stroke="white" stroke-width="2" stroke-linejoin="round"/><path d="M18 6v6h5M13 16h7M13 20h7" fill="none" stroke="white" stroke-width="2" stroke-linecap="round"/></g>
</g>
<g data-slot="83" data-key="analyze_image" transform="translate(96 256)">
<title>Analyze image</title>
<rect x="2" y="2" width="28" height="28" rx="8" fill="#1d4ed8"/>
<path d="M5 4h22a8 8 0 0 1 1 1v10C21 12 12 15 4 25V6a8 8 0 0 1 1-2z" fill="#60a5fa" opacity=".92"/>
<g><circle cx="14" cy="14" r="6" fill="none" stroke="white" stroke-width="2"/><path d="M19 19l6 6" stroke="white" stroke-width="2" stroke-linecap="round"/></g>
</g>
<g data-slot="84" data-key="transcribe_audio" transform="translate(128 256)">
<title>Transcribe audio</title>
<rect x="2" y="2" width="28" height="28" rx="8" fill="#be123c"/>
<path d="M5 4h22a8 8 0 0 1 1 1v10C21 12 12 15 4 25V6a8 8 0 0 1 1-2z" fill="#fb7185" opacity=".92"/>
<g><rect x="12" y="5" width="8" height="14" rx="4" fill="none" stroke="white" stroke-width="2"/><path d="M8 15a8 8 0 0016 0M16 23v4M12 27h8" stroke="white" stroke-width="2" stroke-linecap="round"/></g>
</g>
<g data-slot="85" data-key="tts" transform="translate(160 256)">
<title>Text to speech</title>
<rect x="2" y="2" width="28" height="28" rx="8" fill="#047857"/>
<path d="M5 4h22a8 8 0 0 1 1 1v10C21 12 12 15 4 25V6a8 8 0 0 1 1-2z" fill="#34d399" opacity=".92"/>
<g><text x="16" y="22.2" text-anchor="middle" font-family="Inter, Arial, sans-serif" font-size="8.4" font-weight="800" fill="white">TT</text></g>
</g>
<g data-slot="86" data-key="generate_image" transform="translate(192 256)">
<title>Generate image</title>
<rect x="2" y="2" width="28" height="28" rx="8" fill="#be185d"/>
<path d="M5 4h22a8 8 0 0 1 1 1v10C21 12 12 15 4 25V6a8 8 0 0 1 1-2z" fill="#f472b6" opacity=".92"/>
<g><path d="M16 5l3 7 7 1-5 5 1 8-6-4-6 4 1-8-5-5 7-1z" fill="none" stroke="white" stroke-width="2" stroke-linejoin="round"/></g>
</g>
<g data-slot="87" data-key="generate_video" transform="translate(224 256)">
<title>Generate video</title>
<rect x="2" y="2" width="28" height="28" rx="8" fill="#6d28d9"/>
<path d="M5 4h22a8 8 0 0 1 1 1v10C21 12 12 15 4 25V6a8 8 0 0 1 1-2z" fill="#a78bfa" opacity=".92"/>
<g><rect x="6" y="9" width="15" height="14" rx="2" fill="none" stroke="white" stroke-width="2"/><path d="M21 14l6-4v12l-6-4z" fill="none" stroke="white" stroke-width="2" stroke-linejoin="round"/></g>
</g>
<g data-slot="88" data-key="generate_music" transform="translate(256 256)">
<title>Generate music</title>
<rect x="2" y="2" width="28" height="28" rx="8" fill="#7e22ce"/>
<path d="M5 4h22a8 8 0 0 1 1 1v10C21 12 12 15 4 25V6a8 8 0 0 1 1-2z" fill="#c084fc" opacity=".92"/>
<g><path d="M16 5l3 7 7 1-5 5 1 8-6-4-6 4 1-8-5-5 7-1z" fill="none" stroke="white" stroke-width="2" stroke-linejoin="round"/></g>
</g>
<g data-slot="89" data-key="document_creator" transform="translate(288 256)">
<title>Documents</title>
<rect x="2" y="2" width="28" height="28" rx="8" fill="#92400e"/>
<path d="M5 4h22a8 8 0 0 1 1 1v10C21 12 12 15 4 25V6a8 8 0 0 1 1-2z" fill="#fbbf24" opacity=".92"/>
<g><path d="M10 6h8l5 5v15H10z" fill="none" stroke="white" stroke-width="2" stroke-linejoin="round"/><path d="M18 6v6h5M13 16h7M13 20h7" fill="none" stroke="white" stroke-width="2" stroke-linecap="round"/></g>
</g>
<g data-slot="90" data-key="paperless" transform="translate(0 288)">
<title>Paperless</title>
<rect x="2" y="2" width="28" height="28" rx="8" fill="#15803d"/>
<path d="M5 4h22a8 8 0 0 1 1 1v10C21 12 12 15 4 25V6a8 8 0 0 1 1-2z" fill="#4ade80" opacity=".92"/>
<g><path d="M16 5l10 5v12l-10 5-10-5V10zM6 10l10 5 10-5M16 15v12" fill="none" stroke="white" stroke-width="2" stroke-linejoin="round"/></g>
</g>
<g data-slot="91" data-key="obsidian" transform="translate(32 288)">
<title>Obsidian</title>
<rect x="2" y="2" width="28" height="28" rx="8" fill="#6d28d9"/>
<path d="M5 4h22a8 8 0 0 1 1 1v10C21 12 12 15 4 25V6a8 8 0 0 1 1-2z" fill="#a78bfa" opacity=".92"/>
<g><path d="M16 5l3 7 7 1-5 5 1 8-6-4-6 4 1-8-5-5 7-1z" fill="none" stroke="white" stroke-width="2" stroke-linejoin="round"/></g>
</g>
<g data-slot="92" data-key="knowledge_graph" transform="translate(64 288)">
<title>Knowledge graph</title>
<rect x="2" y="2" width="28" height="28" rx="8" fill="#0e7490"/>
<path d="M5 4h22a8 8 0 0 1 1 1v10C21 12 12 15 4 25V6a8 8 0 0 1 1-2z" fill="#22d3ee" opacity=".92"/>
<g><circle cx="8" cy="10" r="3" fill="none" stroke="white" stroke-width="2"/><circle cx="24" cy="10" r="3" fill="none" stroke="white" stroke-width="2"/><circle cx="16" cy="24" r="3" fill="none" stroke="white" stroke-width="2"/><path d="M11 11h10M10 13l4 8M22 13l-4 8" stroke="white" stroke-width="2"/></g>
</g>
<g data-slot="93" data-key="query_memory" transform="translate(96 288)">
<title>Query memory</title>
<rect x="2" y="2" width="28" height="28" rx="8" fill="#7e22ce"/>
<path d="M5 4h22a8 8 0 0 1 1 1v10C21 12 12 15 4 25V6a8 8 0 0 1 1-2z" fill="#c084fc" opacity=".92"/>
<g><path d="M11 9a4 4 0 00-4 4 4 4 0 002 7 4 4 0 004 5h6a4 4 0 004-5 4 4 0 002-7 4 4 0 00-6-3 4 4 0 00-8-1z" fill="none" stroke="white" stroke-width="2"/><path d="M16 8v18M11 15h10M12 21h8" stroke="white" stroke-width="1.7" stroke-linecap="round"/></g>
</g>
<g data-slot="94" data-key="manage_memory" transform="translate(128 288)">
<title>Memory</title>
<rect x="2" y="2" width="28" height="28" rx="8" fill="#6d28d9"/>
<path d="M5 4h22a8 8 0 0 1 1 1v10C21 12 12 15 4 25V6a8 8 0 0 1 1-2z" fill="#a78bfa" opacity=".92"/>
<g><path d="M11 9a4 4 0 00-4 4 4 4 0 002 7 4 4 0 004 5h6a4 4 0 004-5 4 4 0 002-7 4 4 0 00-6-3 4 4 0 00-8-1z" fill="none" stroke="white" stroke-width="2"/><path d="M16 8v18M11 15h10M12 21h8" stroke="white" stroke-width="1.7" stroke-linecap="round"/></g>
</g>
<g data-slot="95" data-key="manage_notes" transform="translate(160 288)">
<title>Notes</title>
<rect x="2" y="2" width="28" height="28" rx="8" fill="#92400e"/>
<path d="M5 4h22a8 8 0 0 1 1 1v10C21 12 12 15 4 25V6a8 8 0 0 1 1-2z" fill="#fbbf24" opacity=".92"/>
<g><path d="M10 6h8l5 5v15H10z" fill="none" stroke="white" stroke-width="2" stroke-linejoin="round"/><path d="M18 6v6h5M13 16h7M13 20h7" fill="none" stroke="white" stroke-width="2" stroke-linecap="round"/></g>
</g>
<g data-slot="96" data-key="manage_journal" transform="translate(192 288)">
<title>Journal</title>
<rect x="2" y="2" width="28" height="28" rx="8" fill="#78350f"/>
<path d="M5 4h22a8 8 0 0 1 1 1v10C21 12 12 15 4 25V6a8 8 0 0 1 1-2z" fill="#f59e0b" opacity=".92"/>
<g><text x="16" y="22.2" text-anchor="middle" font-family="Inter, Arial, sans-serif" font-size="8.4" font-weight="800" fill="white">JO</text></g>
</g>
<g data-slot="97" data-key="secrets_vault" transform="translate(224 288)">
<title>Secrets vault</title>
<rect x="2" y="2" width="28" height="28" rx="8" fill="#334155"/>
<path d="M5 4h22a8 8 0 0 1 1 1v10C21 12 12 15 4 25V6a8 8 0 0 1 1-2z" fill="#cbd5e1" opacity=".92"/>
<g><rect x="8" y="14" width="16" height="12" rx="2" fill="none" stroke="white" stroke-width="2"/><path d="M11 14v-3a5 5 0 0110 0v3" fill="none" stroke="white" stroke-width="2"/><circle cx="16" cy="20" r="1.5" fill="white"/></g>
</g>
<g data-slot="98" data-key="cron_scheduler" transform="translate(256 288)">
<title>Scheduler</title>
<rect x="2" y="2" width="28" height="28" rx="8" fill="#92400e"/>
<path d="M5 4h22a8 8 0 0 1 1 1v10C21 12 12 15 4 25V6a8 8 0 0 1 1-2z" fill="#fbbf24" opacity=".92"/>
<g><rect x="7" y="9" width="18" height="16" rx="2" fill="none" stroke="white" stroke-width="2"/><path d="M11 6v5M21 6v5M7 14h18" stroke="white" stroke-width="2" stroke-linecap="round"/></g>
</g>
<g data-slot="99" data-key="generic_tool" transform="translate(288 288)">
<title>Generic tool</title>
<rect x="2" y="2" width="28" height="28" rx="8" fill="#475569"/>
<path d="M5 4h22a8 8 0 0 1 1 1v10C21 12 12 15 4 25V6a8 8 0 0 1 1-2z" fill="#e5e7eb" opacity=".92"/>
<g><path d="M16 5l3 7 7 1-5 5 1 8-6-4-6 4 1-8-5-5 7-1z" fill="none" stroke="white" stroke-width="2" stroke-linejoin="round"/></g>
</g>
</svg>
